M48
; DRILL file {KiCad 9.0.7} date 2026-02-23T12:50:17+0400
; FORMAT={-:-/ absolute / metric / decimal}
; #@! TF.CreationDate,2026-02-23T12:50:17+04:00
; #@! TF.GenerationSoftware,Kicad,Pcbnew,9.0.7
; #@! TF.FileFunction,NonPlated,1,2,NPTH
FMAT,2
METRIC
; #@! TA.AperFunction,NonPlated,NPTH,ComponentDrill
T1C1.700
; #@! TA.AperFunction,NonPlated,NPTH,ComponentDrill
T2C4.000
%
G90
G05
T1
X123.44Y-71.4
X123.44Y-90.45
X123.44Y-109.5
X133.6Y-71.4
X133.6Y-90.45
X133.6Y-109.5
X142.49Y-71.4
X142.49Y-90.45
X142.49Y-109.5
X152.65Y-71.4
X152.65Y-90.45
X152.65Y-109.5
X161.54Y-71.4
X161.54Y-90.45
X161.54Y-109.5
X171.7Y-71.4
X171.7Y-90.45
X171.7Y-109.5
T2
X128.52Y-71.4
X128.52Y-90.45
X128.52Y-109.5
X147.57Y-71.4
X147.57Y-90.45
X147.57Y-109.5
X166.62Y-71.4
X166.62Y-90.45
X166.62Y-109.5
M30
