%TF.GenerationSoftware,KiCad,Pcbnew,9.0.7*%
%TF.CreationDate,2026-02-23T12:50:14+04:00*%
%TF.ProjectId,codeer,636f6465-6572-42e6-9b69-6361645f7063,rev?*%
%TF.SameCoordinates,Original*%
%TF.FileFunction,Legend,Top*%
%TF.FilePolarity,Positive*%
%FSLAX46Y46*%
G04 Gerber Fmt 4.6, Leading zero omitted, Abs format (unit mm)*
G04 Created by KiCad (PCBNEW 9.0.7) date 2026-02-23 12:50:14*
%MOMM*%
%LPD*%
G01*
G04 APERTURE LIST*
%ADD10C,0.300000*%
%ADD11C,0.150000*%
%ADD12C,0.101600*%
%ADD13C,0.000000*%
%ADD14C,0.120000*%
%ADD15C,0.127000*%
%ADD16C,0.100000*%
%ADD17C,0.504000*%
G04 APERTURE END LIST*
D10*
X104678572Y-101649757D02*
X104535715Y-101578328D01*
X104535715Y-101578328D02*
X104321429Y-101578328D01*
X104321429Y-101578328D02*
X104107143Y-101649757D01*
X104107143Y-101649757D02*
X103964286Y-101792614D01*
X103964286Y-101792614D02*
X103892857Y-101935471D01*
X103892857Y-101935471D02*
X103821429Y-102221185D01*
X103821429Y-102221185D02*
X103821429Y-102435471D01*
X103821429Y-102435471D02*
X103892857Y-102721185D01*
X103892857Y-102721185D02*
X103964286Y-102864042D01*
X103964286Y-102864042D02*
X104107143Y-103006900D01*
X104107143Y-103006900D02*
X104321429Y-103078328D01*
X104321429Y-103078328D02*
X104464286Y-103078328D01*
X104464286Y-103078328D02*
X104678572Y-103006900D01*
X104678572Y-103006900D02*
X104750000Y-102935471D01*
X104750000Y-102935471D02*
X104750000Y-102435471D01*
X104750000Y-102435471D02*
X104464286Y-102435471D01*
X105607143Y-101578328D02*
X105607143Y-101935471D01*
X105250000Y-101792614D02*
X105607143Y-101935471D01*
X105607143Y-101935471D02*
X105964286Y-101792614D01*
X105392857Y-102221185D02*
X105607143Y-101935471D01*
X105607143Y-101935471D02*
X105821429Y-102221185D01*
X106750000Y-101578328D02*
X106750000Y-101935471D01*
X106392857Y-101792614D02*
X106750000Y-101935471D01*
X106750000Y-101935471D02*
X107107143Y-101792614D01*
X106535714Y-102221185D02*
X106750000Y-101935471D01*
X106750000Y-101935471D02*
X106964286Y-102221185D01*
X107892857Y-101578328D02*
X107892857Y-101935471D01*
X107535714Y-101792614D02*
X107892857Y-101935471D01*
X107892857Y-101935471D02*
X108250000Y-101792614D01*
X107678571Y-102221185D02*
X107892857Y-101935471D01*
X107892857Y-101935471D02*
X108107143Y-102221185D01*
D11*
X165286667Y-82983200D02*
X165429524Y-83030819D01*
X165429524Y-83030819D02*
X165667619Y-83030819D01*
X165667619Y-83030819D02*
X165762857Y-82983200D01*
X165762857Y-82983200D02*
X165810476Y-82935580D01*
X165810476Y-82935580D02*
X165858095Y-82840342D01*
X165858095Y-82840342D02*
X165858095Y-82745104D01*
X165858095Y-82745104D02*
X165810476Y-82649866D01*
X165810476Y-82649866D02*
X165762857Y-82602247D01*
X165762857Y-82602247D02*
X165667619Y-82554628D01*
X165667619Y-82554628D02*
X165477143Y-82507009D01*
X165477143Y-82507009D02*
X165381905Y-82459390D01*
X165381905Y-82459390D02*
X165334286Y-82411771D01*
X165334286Y-82411771D02*
X165286667Y-82316533D01*
X165286667Y-82316533D02*
X165286667Y-82221295D01*
X165286667Y-82221295D02*
X165334286Y-82126057D01*
X165334286Y-82126057D02*
X165381905Y-82078438D01*
X165381905Y-82078438D02*
X165477143Y-82030819D01*
X165477143Y-82030819D02*
X165715238Y-82030819D01*
X165715238Y-82030819D02*
X165858095Y-82078438D01*
X166191429Y-82030819D02*
X166429524Y-83030819D01*
X166429524Y-83030819D02*
X166620000Y-82316533D01*
X166620000Y-82316533D02*
X166810476Y-83030819D01*
X166810476Y-83030819D02*
X167048572Y-82030819D01*
X167572381Y-82459390D02*
X167477143Y-82411771D01*
X167477143Y-82411771D02*
X167429524Y-82364152D01*
X167429524Y-82364152D02*
X167381905Y-82268914D01*
X167381905Y-82268914D02*
X167381905Y-82221295D01*
X167381905Y-82221295D02*
X167429524Y-82126057D01*
X167429524Y-82126057D02*
X167477143Y-82078438D01*
X167477143Y-82078438D02*
X167572381Y-82030819D01*
X167572381Y-82030819D02*
X167762857Y-82030819D01*
X167762857Y-82030819D02*
X167858095Y-82078438D01*
X167858095Y-82078438D02*
X167905714Y-82126057D01*
X167905714Y-82126057D02*
X167953333Y-82221295D01*
X167953333Y-82221295D02*
X167953333Y-82268914D01*
X167953333Y-82268914D02*
X167905714Y-82364152D01*
X167905714Y-82364152D02*
X167858095Y-82411771D01*
X167858095Y-82411771D02*
X167762857Y-82459390D01*
X167762857Y-82459390D02*
X167572381Y-82459390D01*
X167572381Y-82459390D02*
X167477143Y-82507009D01*
X167477143Y-82507009D02*
X167429524Y-82554628D01*
X167429524Y-82554628D02*
X167381905Y-82649866D01*
X167381905Y-82649866D02*
X167381905Y-82840342D01*
X167381905Y-82840342D02*
X167429524Y-82935580D01*
X167429524Y-82935580D02*
X167477143Y-82983200D01*
X167477143Y-82983200D02*
X167572381Y-83030819D01*
X167572381Y-83030819D02*
X167762857Y-83030819D01*
X167762857Y-83030819D02*
X167858095Y-82983200D01*
X167858095Y-82983200D02*
X167905714Y-82935580D01*
X167905714Y-82935580D02*
X167953333Y-82840342D01*
X167953333Y-82840342D02*
X167953333Y-82649866D01*
X167953333Y-82649866D02*
X167905714Y-82554628D01*
X167905714Y-82554628D02*
X167858095Y-82507009D01*
X167858095Y-82507009D02*
X167762857Y-82459390D01*
X121361905Y-60034819D02*
X121361905Y-59034819D01*
X121361905Y-59034819D02*
X121600000Y-59034819D01*
X121600000Y-59034819D02*
X121742857Y-59082438D01*
X121742857Y-59082438D02*
X121838095Y-59177676D01*
X121838095Y-59177676D02*
X121885714Y-59272914D01*
X121885714Y-59272914D02*
X121933333Y-59463390D01*
X121933333Y-59463390D02*
X121933333Y-59606247D01*
X121933333Y-59606247D02*
X121885714Y-59796723D01*
X121885714Y-59796723D02*
X121838095Y-59891961D01*
X121838095Y-59891961D02*
X121742857Y-59987200D01*
X121742857Y-59987200D02*
X121600000Y-60034819D01*
X121600000Y-60034819D02*
X121361905Y-60034819D01*
X122838095Y-59034819D02*
X122361905Y-59034819D01*
X122361905Y-59034819D02*
X122314286Y-59511009D01*
X122314286Y-59511009D02*
X122361905Y-59463390D01*
X122361905Y-59463390D02*
X122457143Y-59415771D01*
X122457143Y-59415771D02*
X122695238Y-59415771D01*
X122695238Y-59415771D02*
X122790476Y-59463390D01*
X122790476Y-59463390D02*
X122838095Y-59511009D01*
X122838095Y-59511009D02*
X122885714Y-59606247D01*
X122885714Y-59606247D02*
X122885714Y-59844342D01*
X122885714Y-59844342D02*
X122838095Y-59939580D01*
X122838095Y-59939580D02*
X122790476Y-59987200D01*
X122790476Y-59987200D02*
X122695238Y-60034819D01*
X122695238Y-60034819D02*
X122457143Y-60034819D01*
X122457143Y-60034819D02*
X122361905Y-59987200D01*
X122361905Y-59987200D02*
X122314286Y-59939580D01*
X118028095Y-60354819D02*
X118028095Y-59354819D01*
X118599523Y-60354819D02*
X118170952Y-59783390D01*
X118599523Y-59354819D02*
X118028095Y-59926247D01*
X119411905Y-99034819D02*
X119411905Y-98034819D01*
X119411905Y-98034819D02*
X119650000Y-98034819D01*
X119650000Y-98034819D02*
X119792857Y-98082438D01*
X119792857Y-98082438D02*
X119888095Y-98177676D01*
X119888095Y-98177676D02*
X119935714Y-98272914D01*
X119935714Y-98272914D02*
X119983333Y-98463390D01*
X119983333Y-98463390D02*
X119983333Y-98606247D01*
X119983333Y-98606247D02*
X119935714Y-98796723D01*
X119935714Y-98796723D02*
X119888095Y-98891961D01*
X119888095Y-98891961D02*
X119792857Y-98987200D01*
X119792857Y-98987200D02*
X119650000Y-99034819D01*
X119650000Y-99034819D02*
X119411905Y-99034819D01*
X120364286Y-98130057D02*
X120411905Y-98082438D01*
X120411905Y-98082438D02*
X120507143Y-98034819D01*
X120507143Y-98034819D02*
X120745238Y-98034819D01*
X120745238Y-98034819D02*
X120840476Y-98082438D01*
X120840476Y-98082438D02*
X120888095Y-98130057D01*
X120888095Y-98130057D02*
X120935714Y-98225295D01*
X120935714Y-98225295D02*
X120935714Y-98320533D01*
X120935714Y-98320533D02*
X120888095Y-98463390D01*
X120888095Y-98463390D02*
X120316667Y-99034819D01*
X120316667Y-99034819D02*
X120935714Y-99034819D01*
X116078095Y-99354819D02*
X116078095Y-98354819D01*
X116649523Y-99354819D02*
X116220952Y-98783390D01*
X116649523Y-98354819D02*
X116078095Y-98926247D01*
D12*
X97696190Y-57503479D02*
X97696190Y-58017526D01*
X97696190Y-58017526D02*
X97726428Y-58078002D01*
X97726428Y-58078002D02*
X97756666Y-58108241D01*
X97756666Y-58108241D02*
X97817142Y-58138479D01*
X97817142Y-58138479D02*
X97938095Y-58138479D01*
X97938095Y-58138479D02*
X97998571Y-58108241D01*
X97998571Y-58108241D02*
X98028809Y-58078002D01*
X98028809Y-58078002D02*
X98059047Y-58017526D01*
X98059047Y-58017526D02*
X98059047Y-57503479D01*
X98331190Y-57563955D02*
X98361428Y-57533717D01*
X98361428Y-57533717D02*
X98421904Y-57503479D01*
X98421904Y-57503479D02*
X98573095Y-57503479D01*
X98573095Y-57503479D02*
X98633571Y-57533717D01*
X98633571Y-57533717D02*
X98663809Y-57563955D01*
X98663809Y-57563955D02*
X98694047Y-57624431D01*
X98694047Y-57624431D02*
X98694047Y-57684907D01*
X98694047Y-57684907D02*
X98663809Y-57775621D01*
X98663809Y-57775621D02*
X98300952Y-58138479D01*
X98300952Y-58138479D02*
X98694047Y-58138479D01*
D11*
X165286667Y-63933200D02*
X165429524Y-63980819D01*
X165429524Y-63980819D02*
X165667619Y-63980819D01*
X165667619Y-63980819D02*
X165762857Y-63933200D01*
X165762857Y-63933200D02*
X165810476Y-63885580D01*
X165810476Y-63885580D02*
X165858095Y-63790342D01*
X165858095Y-63790342D02*
X165858095Y-63695104D01*
X165858095Y-63695104D02*
X165810476Y-63599866D01*
X165810476Y-63599866D02*
X165762857Y-63552247D01*
X165762857Y-63552247D02*
X165667619Y-63504628D01*
X165667619Y-63504628D02*
X165477143Y-63457009D01*
X165477143Y-63457009D02*
X165381905Y-63409390D01*
X165381905Y-63409390D02*
X165334286Y-63361771D01*
X165334286Y-63361771D02*
X165286667Y-63266533D01*
X165286667Y-63266533D02*
X165286667Y-63171295D01*
X165286667Y-63171295D02*
X165334286Y-63076057D01*
X165334286Y-63076057D02*
X165381905Y-63028438D01*
X165381905Y-63028438D02*
X165477143Y-62980819D01*
X165477143Y-62980819D02*
X165715238Y-62980819D01*
X165715238Y-62980819D02*
X165858095Y-63028438D01*
X166191429Y-62980819D02*
X166429524Y-63980819D01*
X166429524Y-63980819D02*
X166620000Y-63266533D01*
X166620000Y-63266533D02*
X166810476Y-63980819D01*
X166810476Y-63980819D02*
X167048572Y-62980819D01*
X167334286Y-62980819D02*
X168000952Y-62980819D01*
X168000952Y-62980819D02*
X167572381Y-63980819D01*
X158961905Y-98634819D02*
X158961905Y-97634819D01*
X158961905Y-97634819D02*
X159200000Y-97634819D01*
X159200000Y-97634819D02*
X159342857Y-97682438D01*
X159342857Y-97682438D02*
X159438095Y-97777676D01*
X159438095Y-97777676D02*
X159485714Y-97872914D01*
X159485714Y-97872914D02*
X159533333Y-98063390D01*
X159533333Y-98063390D02*
X159533333Y-98206247D01*
X159533333Y-98206247D02*
X159485714Y-98396723D01*
X159485714Y-98396723D02*
X159438095Y-98491961D01*
X159438095Y-98491961D02*
X159342857Y-98587200D01*
X159342857Y-98587200D02*
X159200000Y-98634819D01*
X159200000Y-98634819D02*
X158961905Y-98634819D01*
X159866667Y-97634819D02*
X160485714Y-97634819D01*
X160485714Y-97634819D02*
X160152381Y-98015771D01*
X160152381Y-98015771D02*
X160295238Y-98015771D01*
X160295238Y-98015771D02*
X160390476Y-98063390D01*
X160390476Y-98063390D02*
X160438095Y-98111009D01*
X160438095Y-98111009D02*
X160485714Y-98206247D01*
X160485714Y-98206247D02*
X160485714Y-98444342D01*
X160485714Y-98444342D02*
X160438095Y-98539580D01*
X160438095Y-98539580D02*
X160390476Y-98587200D01*
X160390476Y-98587200D02*
X160295238Y-98634819D01*
X160295238Y-98634819D02*
X160009524Y-98634819D01*
X160009524Y-98634819D02*
X159914286Y-98587200D01*
X159914286Y-98587200D02*
X159866667Y-98539580D01*
X155628095Y-98954819D02*
X155628095Y-97954819D01*
X156199523Y-98954819D02*
X155770952Y-98383390D01*
X156199523Y-97954819D02*
X155628095Y-98526247D01*
X161271905Y-59934819D02*
X161271905Y-58934819D01*
X161271905Y-58934819D02*
X161510000Y-58934819D01*
X161510000Y-58934819D02*
X161652857Y-58982438D01*
X161652857Y-58982438D02*
X161748095Y-59077676D01*
X161748095Y-59077676D02*
X161795714Y-59172914D01*
X161795714Y-59172914D02*
X161843333Y-59363390D01*
X161843333Y-59363390D02*
X161843333Y-59506247D01*
X161843333Y-59506247D02*
X161795714Y-59696723D01*
X161795714Y-59696723D02*
X161748095Y-59791961D01*
X161748095Y-59791961D02*
X161652857Y-59887200D01*
X161652857Y-59887200D02*
X161510000Y-59934819D01*
X161510000Y-59934819D02*
X161271905Y-59934819D01*
X162700476Y-59268152D02*
X162700476Y-59934819D01*
X162462381Y-58887200D02*
X162224286Y-59601485D01*
X162224286Y-59601485D02*
X162843333Y-59601485D01*
X157938095Y-60254819D02*
X157938095Y-59254819D01*
X158509523Y-60254819D02*
X158080952Y-59683390D01*
X158509523Y-59254819D02*
X157938095Y-59826247D01*
X139611905Y-80334819D02*
X139611905Y-79334819D01*
X139611905Y-79334819D02*
X139850000Y-79334819D01*
X139850000Y-79334819D02*
X139992857Y-79382438D01*
X139992857Y-79382438D02*
X140088095Y-79477676D01*
X140088095Y-79477676D02*
X140135714Y-79572914D01*
X140135714Y-79572914D02*
X140183333Y-79763390D01*
X140183333Y-79763390D02*
X140183333Y-79906247D01*
X140183333Y-79906247D02*
X140135714Y-80096723D01*
X140135714Y-80096723D02*
X140088095Y-80191961D01*
X140088095Y-80191961D02*
X139992857Y-80287200D01*
X139992857Y-80287200D02*
X139850000Y-80334819D01*
X139850000Y-80334819D02*
X139611905Y-80334819D01*
X140516667Y-79334819D02*
X141183333Y-79334819D01*
X141183333Y-79334819D02*
X140754762Y-80334819D01*
X136278095Y-80654819D02*
X136278095Y-79654819D01*
X136849523Y-80654819D02*
X136420952Y-80083390D01*
X136849523Y-79654819D02*
X136278095Y-80226247D01*
X146236667Y-82983200D02*
X146379524Y-83030819D01*
X146379524Y-83030819D02*
X146617619Y-83030819D01*
X146617619Y-83030819D02*
X146712857Y-82983200D01*
X146712857Y-82983200D02*
X146760476Y-82935580D01*
X146760476Y-82935580D02*
X146808095Y-82840342D01*
X146808095Y-82840342D02*
X146808095Y-82745104D01*
X146808095Y-82745104D02*
X146760476Y-82649866D01*
X146760476Y-82649866D02*
X146712857Y-82602247D01*
X146712857Y-82602247D02*
X146617619Y-82554628D01*
X146617619Y-82554628D02*
X146427143Y-82507009D01*
X146427143Y-82507009D02*
X146331905Y-82459390D01*
X146331905Y-82459390D02*
X146284286Y-82411771D01*
X146284286Y-82411771D02*
X146236667Y-82316533D01*
X146236667Y-82316533D02*
X146236667Y-82221295D01*
X146236667Y-82221295D02*
X146284286Y-82126057D01*
X146284286Y-82126057D02*
X146331905Y-82078438D01*
X146331905Y-82078438D02*
X146427143Y-82030819D01*
X146427143Y-82030819D02*
X146665238Y-82030819D01*
X146665238Y-82030819D02*
X146808095Y-82078438D01*
X147141429Y-82030819D02*
X147379524Y-83030819D01*
X147379524Y-83030819D02*
X147570000Y-82316533D01*
X147570000Y-82316533D02*
X147760476Y-83030819D01*
X147760476Y-83030819D02*
X147998572Y-82030819D01*
X148855714Y-82030819D02*
X148379524Y-82030819D01*
X148379524Y-82030819D02*
X148331905Y-82507009D01*
X148331905Y-82507009D02*
X148379524Y-82459390D01*
X148379524Y-82459390D02*
X148474762Y-82411771D01*
X148474762Y-82411771D02*
X148712857Y-82411771D01*
X148712857Y-82411771D02*
X148808095Y-82459390D01*
X148808095Y-82459390D02*
X148855714Y-82507009D01*
X148855714Y-82507009D02*
X148903333Y-82602247D01*
X148903333Y-82602247D02*
X148903333Y-82840342D01*
X148903333Y-82840342D02*
X148855714Y-82935580D01*
X148855714Y-82935580D02*
X148808095Y-82983200D01*
X148808095Y-82983200D02*
X148712857Y-83030819D01*
X148712857Y-83030819D02*
X148474762Y-83030819D01*
X148474762Y-83030819D02*
X148379524Y-82983200D01*
X148379524Y-82983200D02*
X148331905Y-82935580D01*
X142061905Y-60034819D02*
X142061905Y-59034819D01*
X142061905Y-59034819D02*
X142300000Y-59034819D01*
X142300000Y-59034819D02*
X142442857Y-59082438D01*
X142442857Y-59082438D02*
X142538095Y-59177676D01*
X142538095Y-59177676D02*
X142585714Y-59272914D01*
X142585714Y-59272914D02*
X142633333Y-59463390D01*
X142633333Y-59463390D02*
X142633333Y-59606247D01*
X142633333Y-59606247D02*
X142585714Y-59796723D01*
X142585714Y-59796723D02*
X142538095Y-59891961D01*
X142538095Y-59891961D02*
X142442857Y-59987200D01*
X142442857Y-59987200D02*
X142300000Y-60034819D01*
X142300000Y-60034819D02*
X142061905Y-60034819D01*
X143490476Y-59034819D02*
X143300000Y-59034819D01*
X143300000Y-59034819D02*
X143204762Y-59082438D01*
X143204762Y-59082438D02*
X143157143Y-59130057D01*
X143157143Y-59130057D02*
X143061905Y-59272914D01*
X143061905Y-59272914D02*
X143014286Y-59463390D01*
X143014286Y-59463390D02*
X143014286Y-59844342D01*
X143014286Y-59844342D02*
X143061905Y-59939580D01*
X143061905Y-59939580D02*
X143109524Y-59987200D01*
X143109524Y-59987200D02*
X143204762Y-60034819D01*
X143204762Y-60034819D02*
X143395238Y-60034819D01*
X143395238Y-60034819D02*
X143490476Y-59987200D01*
X143490476Y-59987200D02*
X143538095Y-59939580D01*
X143538095Y-59939580D02*
X143585714Y-59844342D01*
X143585714Y-59844342D02*
X143585714Y-59606247D01*
X143585714Y-59606247D02*
X143538095Y-59511009D01*
X143538095Y-59511009D02*
X143490476Y-59463390D01*
X143490476Y-59463390D02*
X143395238Y-59415771D01*
X143395238Y-59415771D02*
X143204762Y-59415771D01*
X143204762Y-59415771D02*
X143109524Y-59463390D01*
X143109524Y-59463390D02*
X143061905Y-59511009D01*
X143061905Y-59511009D02*
X143014286Y-59606247D01*
X138728095Y-60354819D02*
X138728095Y-59354819D01*
X139299523Y-60354819D02*
X138870952Y-59783390D01*
X139299523Y-59354819D02*
X138728095Y-59926247D01*
X165286667Y-102033200D02*
X165429524Y-102080819D01*
X165429524Y-102080819D02*
X165667619Y-102080819D01*
X165667619Y-102080819D02*
X165762857Y-102033200D01*
X165762857Y-102033200D02*
X165810476Y-101985580D01*
X165810476Y-101985580D02*
X165858095Y-101890342D01*
X165858095Y-101890342D02*
X165858095Y-101795104D01*
X165858095Y-101795104D02*
X165810476Y-101699866D01*
X165810476Y-101699866D02*
X165762857Y-101652247D01*
X165762857Y-101652247D02*
X165667619Y-101604628D01*
X165667619Y-101604628D02*
X165477143Y-101557009D01*
X165477143Y-101557009D02*
X165381905Y-101509390D01*
X165381905Y-101509390D02*
X165334286Y-101461771D01*
X165334286Y-101461771D02*
X165286667Y-101366533D01*
X165286667Y-101366533D02*
X165286667Y-101271295D01*
X165286667Y-101271295D02*
X165334286Y-101176057D01*
X165334286Y-101176057D02*
X165381905Y-101128438D01*
X165381905Y-101128438D02*
X165477143Y-101080819D01*
X165477143Y-101080819D02*
X165715238Y-101080819D01*
X165715238Y-101080819D02*
X165858095Y-101128438D01*
X166191429Y-101080819D02*
X166429524Y-102080819D01*
X166429524Y-102080819D02*
X166620000Y-101366533D01*
X166620000Y-101366533D02*
X166810476Y-102080819D01*
X166810476Y-102080819D02*
X167048572Y-101080819D01*
X167477143Y-102080819D02*
X167667619Y-102080819D01*
X167667619Y-102080819D02*
X167762857Y-102033200D01*
X167762857Y-102033200D02*
X167810476Y-101985580D01*
X167810476Y-101985580D02*
X167905714Y-101842723D01*
X167905714Y-101842723D02*
X167953333Y-101652247D01*
X167953333Y-101652247D02*
X167953333Y-101271295D01*
X167953333Y-101271295D02*
X167905714Y-101176057D01*
X167905714Y-101176057D02*
X167858095Y-101128438D01*
X167858095Y-101128438D02*
X167762857Y-101080819D01*
X167762857Y-101080819D02*
X167572381Y-101080819D01*
X167572381Y-101080819D02*
X167477143Y-101128438D01*
X167477143Y-101128438D02*
X167429524Y-101176057D01*
X167429524Y-101176057D02*
X167381905Y-101271295D01*
X167381905Y-101271295D02*
X167381905Y-101509390D01*
X167381905Y-101509390D02*
X167429524Y-101604628D01*
X167429524Y-101604628D02*
X167477143Y-101652247D01*
X167477143Y-101652247D02*
X167572381Y-101699866D01*
X167572381Y-101699866D02*
X167762857Y-101699866D01*
X167762857Y-101699866D02*
X167858095Y-101652247D01*
X167858095Y-101652247D02*
X167905714Y-101604628D01*
X167905714Y-101604628D02*
X167953333Y-101509390D01*
X127186667Y-63933200D02*
X127329524Y-63980819D01*
X127329524Y-63980819D02*
X127567619Y-63980819D01*
X127567619Y-63980819D02*
X127662857Y-63933200D01*
X127662857Y-63933200D02*
X127710476Y-63885580D01*
X127710476Y-63885580D02*
X127758095Y-63790342D01*
X127758095Y-63790342D02*
X127758095Y-63695104D01*
X127758095Y-63695104D02*
X127710476Y-63599866D01*
X127710476Y-63599866D02*
X127662857Y-63552247D01*
X127662857Y-63552247D02*
X127567619Y-63504628D01*
X127567619Y-63504628D02*
X127377143Y-63457009D01*
X127377143Y-63457009D02*
X127281905Y-63409390D01*
X127281905Y-63409390D02*
X127234286Y-63361771D01*
X127234286Y-63361771D02*
X127186667Y-63266533D01*
X127186667Y-63266533D02*
X127186667Y-63171295D01*
X127186667Y-63171295D02*
X127234286Y-63076057D01*
X127234286Y-63076057D02*
X127281905Y-63028438D01*
X127281905Y-63028438D02*
X127377143Y-62980819D01*
X127377143Y-62980819D02*
X127615238Y-62980819D01*
X127615238Y-62980819D02*
X127758095Y-63028438D01*
X128091429Y-62980819D02*
X128329524Y-63980819D01*
X128329524Y-63980819D02*
X128520000Y-63266533D01*
X128520000Y-63266533D02*
X128710476Y-63980819D01*
X128710476Y-63980819D02*
X128948572Y-62980819D01*
X129853333Y-63980819D02*
X129281905Y-63980819D01*
X129567619Y-63980819D02*
X129567619Y-62980819D01*
X129567619Y-62980819D02*
X129472381Y-63123676D01*
X129472381Y-63123676D02*
X129377143Y-63218914D01*
X129377143Y-63218914D02*
X129281905Y-63266533D01*
X139161905Y-99034819D02*
X139161905Y-98034819D01*
X139161905Y-98034819D02*
X139400000Y-98034819D01*
X139400000Y-98034819D02*
X139542857Y-98082438D01*
X139542857Y-98082438D02*
X139638095Y-98177676D01*
X139638095Y-98177676D02*
X139685714Y-98272914D01*
X139685714Y-98272914D02*
X139733333Y-98463390D01*
X139733333Y-98463390D02*
X139733333Y-98606247D01*
X139733333Y-98606247D02*
X139685714Y-98796723D01*
X139685714Y-98796723D02*
X139638095Y-98891961D01*
X139638095Y-98891961D02*
X139542857Y-98987200D01*
X139542857Y-98987200D02*
X139400000Y-99034819D01*
X139400000Y-99034819D02*
X139161905Y-99034819D01*
X140685714Y-99034819D02*
X140114286Y-99034819D01*
X140400000Y-99034819D02*
X140400000Y-98034819D01*
X140400000Y-98034819D02*
X140304762Y-98177676D01*
X140304762Y-98177676D02*
X140209524Y-98272914D01*
X140209524Y-98272914D02*
X140114286Y-98320533D01*
X135828095Y-99354819D02*
X135828095Y-98354819D01*
X136399523Y-99354819D02*
X135970952Y-98783390D01*
X136399523Y-98354819D02*
X135828095Y-98926247D01*
X127186667Y-102033200D02*
X127329524Y-102080819D01*
X127329524Y-102080819D02*
X127567619Y-102080819D01*
X127567619Y-102080819D02*
X127662857Y-102033200D01*
X127662857Y-102033200D02*
X127710476Y-101985580D01*
X127710476Y-101985580D02*
X127758095Y-101890342D01*
X127758095Y-101890342D02*
X127758095Y-101795104D01*
X127758095Y-101795104D02*
X127710476Y-101699866D01*
X127710476Y-101699866D02*
X127662857Y-101652247D01*
X127662857Y-101652247D02*
X127567619Y-101604628D01*
X127567619Y-101604628D02*
X127377143Y-101557009D01*
X127377143Y-101557009D02*
X127281905Y-101509390D01*
X127281905Y-101509390D02*
X127234286Y-101461771D01*
X127234286Y-101461771D02*
X127186667Y-101366533D01*
X127186667Y-101366533D02*
X127186667Y-101271295D01*
X127186667Y-101271295D02*
X127234286Y-101176057D01*
X127234286Y-101176057D02*
X127281905Y-101128438D01*
X127281905Y-101128438D02*
X127377143Y-101080819D01*
X127377143Y-101080819D02*
X127615238Y-101080819D01*
X127615238Y-101080819D02*
X127758095Y-101128438D01*
X128091429Y-101080819D02*
X128329524Y-102080819D01*
X128329524Y-102080819D02*
X128520000Y-101366533D01*
X128520000Y-101366533D02*
X128710476Y-102080819D01*
X128710476Y-102080819D02*
X128948572Y-101080819D01*
X129234286Y-101080819D02*
X129853333Y-101080819D01*
X129853333Y-101080819D02*
X129520000Y-101461771D01*
X129520000Y-101461771D02*
X129662857Y-101461771D01*
X129662857Y-101461771D02*
X129758095Y-101509390D01*
X129758095Y-101509390D02*
X129805714Y-101557009D01*
X129805714Y-101557009D02*
X129853333Y-101652247D01*
X129853333Y-101652247D02*
X129853333Y-101890342D01*
X129853333Y-101890342D02*
X129805714Y-101985580D01*
X129805714Y-101985580D02*
X129758095Y-102033200D01*
X129758095Y-102033200D02*
X129662857Y-102080819D01*
X129662857Y-102080819D02*
X129377143Y-102080819D01*
X129377143Y-102080819D02*
X129281905Y-102033200D01*
X129281905Y-102033200D02*
X129234286Y-101985580D01*
X146236667Y-102033200D02*
X146379524Y-102080819D01*
X146379524Y-102080819D02*
X146617619Y-102080819D01*
X146617619Y-102080819D02*
X146712857Y-102033200D01*
X146712857Y-102033200D02*
X146760476Y-101985580D01*
X146760476Y-101985580D02*
X146808095Y-101890342D01*
X146808095Y-101890342D02*
X146808095Y-101795104D01*
X146808095Y-101795104D02*
X146760476Y-101699866D01*
X146760476Y-101699866D02*
X146712857Y-101652247D01*
X146712857Y-101652247D02*
X146617619Y-101604628D01*
X146617619Y-101604628D02*
X146427143Y-101557009D01*
X146427143Y-101557009D02*
X146331905Y-101509390D01*
X146331905Y-101509390D02*
X146284286Y-101461771D01*
X146284286Y-101461771D02*
X146236667Y-101366533D01*
X146236667Y-101366533D02*
X146236667Y-101271295D01*
X146236667Y-101271295D02*
X146284286Y-101176057D01*
X146284286Y-101176057D02*
X146331905Y-101128438D01*
X146331905Y-101128438D02*
X146427143Y-101080819D01*
X146427143Y-101080819D02*
X146665238Y-101080819D01*
X146665238Y-101080819D02*
X146808095Y-101128438D01*
X147141429Y-101080819D02*
X147379524Y-102080819D01*
X147379524Y-102080819D02*
X147570000Y-101366533D01*
X147570000Y-101366533D02*
X147760476Y-102080819D01*
X147760476Y-102080819D02*
X147998572Y-101080819D01*
X148808095Y-101080819D02*
X148617619Y-101080819D01*
X148617619Y-101080819D02*
X148522381Y-101128438D01*
X148522381Y-101128438D02*
X148474762Y-101176057D01*
X148474762Y-101176057D02*
X148379524Y-101318914D01*
X148379524Y-101318914D02*
X148331905Y-101509390D01*
X148331905Y-101509390D02*
X148331905Y-101890342D01*
X148331905Y-101890342D02*
X148379524Y-101985580D01*
X148379524Y-101985580D02*
X148427143Y-102033200D01*
X148427143Y-102033200D02*
X148522381Y-102080819D01*
X148522381Y-102080819D02*
X148712857Y-102080819D01*
X148712857Y-102080819D02*
X148808095Y-102033200D01*
X148808095Y-102033200D02*
X148855714Y-101985580D01*
X148855714Y-101985580D02*
X148903333Y-101890342D01*
X148903333Y-101890342D02*
X148903333Y-101652247D01*
X148903333Y-101652247D02*
X148855714Y-101557009D01*
X148855714Y-101557009D02*
X148808095Y-101509390D01*
X148808095Y-101509390D02*
X148712857Y-101461771D01*
X148712857Y-101461771D02*
X148522381Y-101461771D01*
X148522381Y-101461771D02*
X148427143Y-101509390D01*
X148427143Y-101509390D02*
X148379524Y-101557009D01*
X148379524Y-101557009D02*
X148331905Y-101652247D01*
X146236667Y-63933200D02*
X146379524Y-63980819D01*
X146379524Y-63980819D02*
X146617619Y-63980819D01*
X146617619Y-63980819D02*
X146712857Y-63933200D01*
X146712857Y-63933200D02*
X146760476Y-63885580D01*
X146760476Y-63885580D02*
X146808095Y-63790342D01*
X146808095Y-63790342D02*
X146808095Y-63695104D01*
X146808095Y-63695104D02*
X146760476Y-63599866D01*
X146760476Y-63599866D02*
X146712857Y-63552247D01*
X146712857Y-63552247D02*
X146617619Y-63504628D01*
X146617619Y-63504628D02*
X146427143Y-63457009D01*
X146427143Y-63457009D02*
X146331905Y-63409390D01*
X146331905Y-63409390D02*
X146284286Y-63361771D01*
X146284286Y-63361771D02*
X146236667Y-63266533D01*
X146236667Y-63266533D02*
X146236667Y-63171295D01*
X146236667Y-63171295D02*
X146284286Y-63076057D01*
X146284286Y-63076057D02*
X146331905Y-63028438D01*
X146331905Y-63028438D02*
X146427143Y-62980819D01*
X146427143Y-62980819D02*
X146665238Y-62980819D01*
X146665238Y-62980819D02*
X146808095Y-63028438D01*
X147141429Y-62980819D02*
X147379524Y-63980819D01*
X147379524Y-63980819D02*
X147570000Y-63266533D01*
X147570000Y-63266533D02*
X147760476Y-63980819D01*
X147760476Y-63980819D02*
X147998572Y-62980819D01*
X148808095Y-63314152D02*
X148808095Y-63980819D01*
X148570000Y-62933200D02*
X148331905Y-63647485D01*
X148331905Y-63647485D02*
X148950952Y-63647485D01*
X127186667Y-82983200D02*
X127329524Y-83030819D01*
X127329524Y-83030819D02*
X127567619Y-83030819D01*
X127567619Y-83030819D02*
X127662857Y-82983200D01*
X127662857Y-82983200D02*
X127710476Y-82935580D01*
X127710476Y-82935580D02*
X127758095Y-82840342D01*
X127758095Y-82840342D02*
X127758095Y-82745104D01*
X127758095Y-82745104D02*
X127710476Y-82649866D01*
X127710476Y-82649866D02*
X127662857Y-82602247D01*
X127662857Y-82602247D02*
X127567619Y-82554628D01*
X127567619Y-82554628D02*
X127377143Y-82507009D01*
X127377143Y-82507009D02*
X127281905Y-82459390D01*
X127281905Y-82459390D02*
X127234286Y-82411771D01*
X127234286Y-82411771D02*
X127186667Y-82316533D01*
X127186667Y-82316533D02*
X127186667Y-82221295D01*
X127186667Y-82221295D02*
X127234286Y-82126057D01*
X127234286Y-82126057D02*
X127281905Y-82078438D01*
X127281905Y-82078438D02*
X127377143Y-82030819D01*
X127377143Y-82030819D02*
X127615238Y-82030819D01*
X127615238Y-82030819D02*
X127758095Y-82078438D01*
X128091429Y-82030819D02*
X128329524Y-83030819D01*
X128329524Y-83030819D02*
X128520000Y-82316533D01*
X128520000Y-82316533D02*
X128710476Y-83030819D01*
X128710476Y-83030819D02*
X128948572Y-82030819D01*
X129281905Y-82126057D02*
X129329524Y-82078438D01*
X129329524Y-82078438D02*
X129424762Y-82030819D01*
X129424762Y-82030819D02*
X129662857Y-82030819D01*
X129662857Y-82030819D02*
X129758095Y-82078438D01*
X129758095Y-82078438D02*
X129805714Y-82126057D01*
X129805714Y-82126057D02*
X129853333Y-82221295D01*
X129853333Y-82221295D02*
X129853333Y-82316533D01*
X129853333Y-82316533D02*
X129805714Y-82459390D01*
X129805714Y-82459390D02*
X129234286Y-83030819D01*
X129234286Y-83030819D02*
X129853333Y-83030819D01*
X120561905Y-80334819D02*
X120561905Y-79334819D01*
X120561905Y-79334819D02*
X120800000Y-79334819D01*
X120800000Y-79334819D02*
X120942857Y-79382438D01*
X120942857Y-79382438D02*
X121038095Y-79477676D01*
X121038095Y-79477676D02*
X121085714Y-79572914D01*
X121085714Y-79572914D02*
X121133333Y-79763390D01*
X121133333Y-79763390D02*
X121133333Y-79906247D01*
X121133333Y-79906247D02*
X121085714Y-80096723D01*
X121085714Y-80096723D02*
X121038095Y-80191961D01*
X121038095Y-80191961D02*
X120942857Y-80287200D01*
X120942857Y-80287200D02*
X120800000Y-80334819D01*
X120800000Y-80334819D02*
X120561905Y-80334819D01*
X121704762Y-79763390D02*
X121609524Y-79715771D01*
X121609524Y-79715771D02*
X121561905Y-79668152D01*
X121561905Y-79668152D02*
X121514286Y-79572914D01*
X121514286Y-79572914D02*
X121514286Y-79525295D01*
X121514286Y-79525295D02*
X121561905Y-79430057D01*
X121561905Y-79430057D02*
X121609524Y-79382438D01*
X121609524Y-79382438D02*
X121704762Y-79334819D01*
X121704762Y-79334819D02*
X121895238Y-79334819D01*
X121895238Y-79334819D02*
X121990476Y-79382438D01*
X121990476Y-79382438D02*
X122038095Y-79430057D01*
X122038095Y-79430057D02*
X122085714Y-79525295D01*
X122085714Y-79525295D02*
X122085714Y-79572914D01*
X122085714Y-79572914D02*
X122038095Y-79668152D01*
X122038095Y-79668152D02*
X121990476Y-79715771D01*
X121990476Y-79715771D02*
X121895238Y-79763390D01*
X121895238Y-79763390D02*
X121704762Y-79763390D01*
X121704762Y-79763390D02*
X121609524Y-79811009D01*
X121609524Y-79811009D02*
X121561905Y-79858628D01*
X121561905Y-79858628D02*
X121514286Y-79953866D01*
X121514286Y-79953866D02*
X121514286Y-80144342D01*
X121514286Y-80144342D02*
X121561905Y-80239580D01*
X121561905Y-80239580D02*
X121609524Y-80287200D01*
X121609524Y-80287200D02*
X121704762Y-80334819D01*
X121704762Y-80334819D02*
X121895238Y-80334819D01*
X121895238Y-80334819D02*
X121990476Y-80287200D01*
X121990476Y-80287200D02*
X122038095Y-80239580D01*
X122038095Y-80239580D02*
X122085714Y-80144342D01*
X122085714Y-80144342D02*
X122085714Y-79953866D01*
X122085714Y-79953866D02*
X122038095Y-79858628D01*
X122038095Y-79858628D02*
X121990476Y-79811009D01*
X121990476Y-79811009D02*
X121895238Y-79763390D01*
X117228095Y-80654819D02*
X117228095Y-79654819D01*
X117799523Y-80654819D02*
X117370952Y-80083390D01*
X117799523Y-79654819D02*
X117228095Y-80226247D01*
X158661905Y-80334819D02*
X158661905Y-79334819D01*
X158661905Y-79334819D02*
X158900000Y-79334819D01*
X158900000Y-79334819D02*
X159042857Y-79382438D01*
X159042857Y-79382438D02*
X159138095Y-79477676D01*
X159138095Y-79477676D02*
X159185714Y-79572914D01*
X159185714Y-79572914D02*
X159233333Y-79763390D01*
X159233333Y-79763390D02*
X159233333Y-79906247D01*
X159233333Y-79906247D02*
X159185714Y-80096723D01*
X159185714Y-80096723D02*
X159138095Y-80191961D01*
X159138095Y-80191961D02*
X159042857Y-80287200D01*
X159042857Y-80287200D02*
X158900000Y-80334819D01*
X158900000Y-80334819D02*
X158661905Y-80334819D01*
X159709524Y-80334819D02*
X159900000Y-80334819D01*
X159900000Y-80334819D02*
X159995238Y-80287200D01*
X159995238Y-80287200D02*
X160042857Y-80239580D01*
X160042857Y-80239580D02*
X160138095Y-80096723D01*
X160138095Y-80096723D02*
X160185714Y-79906247D01*
X160185714Y-79906247D02*
X160185714Y-79525295D01*
X160185714Y-79525295D02*
X160138095Y-79430057D01*
X160138095Y-79430057D02*
X160090476Y-79382438D01*
X160090476Y-79382438D02*
X159995238Y-79334819D01*
X159995238Y-79334819D02*
X159804762Y-79334819D01*
X159804762Y-79334819D02*
X159709524Y-79382438D01*
X159709524Y-79382438D02*
X159661905Y-79430057D01*
X159661905Y-79430057D02*
X159614286Y-79525295D01*
X159614286Y-79525295D02*
X159614286Y-79763390D01*
X159614286Y-79763390D02*
X159661905Y-79858628D01*
X159661905Y-79858628D02*
X159709524Y-79906247D01*
X159709524Y-79906247D02*
X159804762Y-79953866D01*
X159804762Y-79953866D02*
X159995238Y-79953866D01*
X159995238Y-79953866D02*
X160090476Y-79906247D01*
X160090476Y-79906247D02*
X160138095Y-79858628D01*
X160138095Y-79858628D02*
X160185714Y-79763390D01*
X155328095Y-80654819D02*
X155328095Y-79654819D01*
X155899523Y-80654819D02*
X155470952Y-80083390D01*
X155899523Y-79654819D02*
X155328095Y-80226247D01*
D13*
%TO.C,G\u002A\u002A\u002A*%
G36*
X100299589Y-105546518D02*
G01*
X100395433Y-105554217D01*
X100446292Y-105569082D01*
X100468146Y-105599816D01*
X100475563Y-105642372D01*
X100476569Y-105723990D01*
X100466629Y-105777874D01*
X100447951Y-105799979D01*
X100419147Y-105776018D01*
X100388573Y-105729560D01*
X100339362Y-105664533D01*
X100281098Y-105637096D01*
X100206277Y-105632173D01*
X100120432Y-105639394D01*
X100072330Y-105668162D01*
X100048885Y-105707500D01*
X100032612Y-105763304D01*
X100044713Y-105813667D01*
X100092297Y-105867971D01*
X100182470Y-105935600D01*
X100260430Y-105986768D01*
X100394258Y-106092044D01*
X100468090Y-106197377D01*
X100496190Y-106329227D01*
X100471630Y-106447545D01*
X100402288Y-106546150D01*
X100296044Y-106618861D01*
X100160776Y-106659498D01*
X100004365Y-106661878D01*
X99901561Y-106641801D01*
X99843806Y-106609547D01*
X99818373Y-106542837D01*
X99815559Y-106519969D01*
X99812572Y-106416832D01*
X99826565Y-106364543D01*
X99854881Y-106366251D01*
X99894868Y-106425109D01*
X99895090Y-106425546D01*
X99970454Y-106517291D01*
X100070862Y-106559569D01*
X100182240Y-106547276D01*
X100204619Y-106537808D01*
X100261182Y-106495360D01*
X100281613Y-106427469D01*
X100282713Y-106394878D01*
X100277348Y-106335172D01*
X100253782Y-106287118D01*
X100200813Y-106236382D01*
X100107234Y-106168630D01*
X100104282Y-106166597D01*
X99955838Y-106045615D01*
X99867618Y-105928598D01*
X99839769Y-105815948D01*
X99872441Y-105708064D01*
X99914208Y-105653105D01*
X99987204Y-105590456D01*
X100072866Y-105555511D01*
X100188275Y-105543545D01*
X100299589Y-105546518D01*
G37*
G36*
X102916860Y-105561310D02*
G01*
X103079295Y-105623599D01*
X103199170Y-105728235D01*
X103257834Y-105825676D01*
X103308670Y-106000982D01*
X103305387Y-106169176D01*
X103254846Y-106323460D01*
X103163912Y-106457032D01*
X103039447Y-106563093D01*
X102888315Y-106634843D01*
X102717379Y-106665482D01*
X102533503Y-106648208D01*
X102451844Y-106624242D01*
X102293969Y-106538672D01*
X102176114Y-106415381D01*
X102102033Y-106265591D01*
X102075475Y-106100523D01*
X102095654Y-105962446D01*
X102318034Y-105962446D01*
X102318504Y-106119203D01*
X102354604Y-106273157D01*
X102411335Y-106385421D01*
X102486669Y-106474412D01*
X102574546Y-106523826D01*
X102694989Y-106543386D01*
X102739643Y-106544875D01*
X102844453Y-106537060D01*
X102915116Y-106504441D01*
X102943434Y-106478331D01*
X103029439Y-106344709D01*
X103069463Y-106187422D01*
X103064336Y-106021897D01*
X103014883Y-105863562D01*
X102921933Y-105727843D01*
X102902136Y-105708380D01*
X102797170Y-105647884D01*
X102669654Y-105626281D01*
X102541750Y-105643443D01*
X102435616Y-105699247D01*
X102422789Y-105711097D01*
X102352896Y-105820530D01*
X102318034Y-105962446D01*
X102095654Y-105962446D01*
X102100192Y-105931398D01*
X102170654Y-105783056D01*
X102276883Y-105662772D01*
X102412089Y-105585297D01*
X102584918Y-105546752D01*
X102710572Y-105540696D01*
X102916860Y-105561310D01*
G37*
G36*
X109032570Y-105555097D02*
G01*
X109126979Y-105580025D01*
X109134587Y-105583712D01*
X109273547Y-105687033D01*
X109368387Y-105821163D01*
X109418926Y-105974622D01*
X109424984Y-106135929D01*
X109386379Y-106293603D01*
X109302931Y-106436163D01*
X109174459Y-106552128D01*
X109150085Y-106567230D01*
X108996226Y-106630137D01*
X108823380Y-106657753D01*
X108656868Y-106647387D01*
X108584491Y-106627339D01*
X108445082Y-106564522D01*
X108348760Y-106490605D01*
X108277744Y-106390719D01*
X108259908Y-106355939D01*
X108204048Y-106179851D01*
X108202600Y-106043327D01*
X108439376Y-106043327D01*
X108460715Y-106230611D01*
X108522771Y-106377757D01*
X108622597Y-106481184D01*
X108757247Y-106537308D01*
X108853328Y-106546787D01*
X108960803Y-106539697D01*
X109031306Y-106513411D01*
X109072223Y-106478331D01*
X109149570Y-106354116D01*
X109186441Y-106202587D01*
X109183811Y-106041160D01*
X109142656Y-105887253D01*
X109063949Y-105758283D01*
X109030020Y-105724268D01*
X108945039Y-105662442D01*
X108858469Y-105636470D01*
X108781352Y-105632851D01*
X108637554Y-105653811D01*
X108534434Y-105716936D01*
X108469743Y-105824928D01*
X108441230Y-105980489D01*
X108439376Y-106043327D01*
X108202600Y-106043327D01*
X108202204Y-106006041D01*
X108250717Y-105845088D01*
X108345927Y-105707571D01*
X108484176Y-105604069D01*
X108526953Y-105583937D01*
X108628285Y-105557460D01*
X108761088Y-105543823D01*
X108903228Y-105543032D01*
X109032570Y-105555097D01*
G37*
G36*
X110306494Y-105543179D02*
G01*
X110375749Y-105547895D01*
X110401605Y-105557815D01*
X110392851Y-105574943D01*
X110379399Y-105585961D01*
X110356550Y-105606680D01*
X110345701Y-105633153D01*
X110348784Y-105675929D01*
X110367731Y-105745559D01*
X110404472Y-105852592D01*
X110452262Y-105983927D01*
X110515357Y-106147817D01*
X110562883Y-106252960D01*
X110594935Y-106299544D01*
X110607912Y-106297915D01*
X110629258Y-106254209D01*
X110667305Y-106167268D01*
X110716279Y-106050548D01*
X110760033Y-105943320D01*
X110814673Y-105806153D01*
X110848225Y-105714199D01*
X110862856Y-105656289D01*
X110860729Y-105621258D01*
X110844010Y-105597940D01*
X110829306Y-105586006D01*
X110804641Y-105562846D01*
X110813603Y-105549725D01*
X110865269Y-105543829D01*
X110968719Y-105542346D01*
X110970228Y-105542344D01*
X111075352Y-105542992D01*
X111128478Y-105547732D01*
X111138591Y-105560166D01*
X111114675Y-105583892D01*
X111100947Y-105594736D01*
X111055589Y-105647914D01*
X110998950Y-105738956D01*
X110942538Y-105849157D01*
X110937192Y-105860864D01*
X110873593Y-106000944D01*
X110800286Y-106161055D01*
X110734776Y-106303001D01*
X110681555Y-106419001D01*
X110635810Y-106521093D01*
X110605806Y-106590769D01*
X110601987Y-106600300D01*
X110567738Y-106657809D01*
X110530399Y-106657079D01*
X110487466Y-106597258D01*
X110467275Y-106554562D01*
X110437226Y-106485005D01*
X110389284Y-106373097D01*
X110329346Y-106232639D01*
X110263307Y-106077433D01*
X110242556Y-106028571D01*
X110170471Y-105862297D01*
X110115414Y-105745097D01*
X110072817Y-105669015D01*
X110038114Y-105626093D01*
X110006735Y-105608374D01*
X110000657Y-105607183D01*
X109947776Y-105588580D01*
X109933493Y-105569068D01*
X109961605Y-105556183D01*
X110036473Y-105546608D01*
X110143891Y-105541890D01*
X110185054Y-105541666D01*
X110306494Y-105543179D01*
G37*
G36*
X101786832Y-105548027D02*
G01*
X101799700Y-105549102D01*
X101874564Y-105558087D01*
X101894559Y-105568237D01*
X101865749Y-105583112D01*
X101860684Y-105584904D01*
X101834827Y-105596035D01*
X101816448Y-105614746D01*
X101804272Y-105650380D01*
X101797023Y-105712277D01*
X101793425Y-105809779D01*
X101792203Y-105952226D01*
X101792077Y-106087226D01*
X101792077Y-106565658D01*
X101875930Y-106598793D01*
X101908149Y-106614779D01*
X101902375Y-106624995D01*
X101851741Y-106630828D01*
X101749379Y-106633665D01*
X101700600Y-106634202D01*
X101576861Y-106634282D01*
X101505356Y-106630658D01*
X101477363Y-106621551D01*
X101484161Y-106605185D01*
X101498752Y-106593063D01*
X101533099Y-106550080D01*
X101555575Y-106475035D01*
X101569990Y-106354396D01*
X101571457Y-106334849D01*
X101586826Y-106120048D01*
X101308299Y-106120048D01*
X101029772Y-106120048D01*
X101029772Y-106342853D01*
X101031047Y-106458150D01*
X101038161Y-106527528D01*
X101056048Y-106566043D01*
X101089641Y-106588754D01*
X101113625Y-106598793D01*
X101144531Y-106614418D01*
X101137509Y-106624466D01*
X101085814Y-106630152D01*
X100982703Y-106632691D01*
X100923049Y-106633108D01*
X100795204Y-106632330D01*
X100721666Y-106627959D01*
X100695812Y-106618968D01*
X100711018Y-106604332D01*
X100717227Y-106601200D01*
X100743123Y-106586384D01*
X100761518Y-106564589D01*
X100773694Y-106526283D01*
X100780932Y-106461933D01*
X100784513Y-106362007D01*
X100785718Y-106216973D01*
X100785834Y-106090782D01*
X100785834Y-105613453D01*
X100701981Y-105580318D01*
X100669762Y-105564333D01*
X100675536Y-105554117D01*
X100726170Y-105548284D01*
X100828532Y-105545447D01*
X100877311Y-105544910D01*
X101001257Y-105545018D01*
X101072773Y-105549083D01*
X101100369Y-105558683D01*
X101092551Y-105575401D01*
X101083133Y-105583143D01*
X101050931Y-105624923D01*
X101034314Y-105697738D01*
X101029772Y-105810864D01*
X101029772Y-105998079D01*
X101304202Y-105998079D01*
X101578631Y-105998079D01*
X101578215Y-105868487D01*
X101570401Y-105731645D01*
X101545535Y-105643875D01*
X101499891Y-105594742D01*
X101476713Y-105584167D01*
X101446693Y-105568939D01*
X101466093Y-105558303D01*
X101540516Y-105549102D01*
X101661920Y-105544205D01*
X101786832Y-105548027D01*
G37*
G36*
X103719228Y-105539848D02*
G01*
X103844356Y-105544756D01*
X103963133Y-105554236D01*
X104062149Y-105568024D01*
X104125903Y-105584960D01*
X104226428Y-105653692D01*
X104276854Y-105748615D01*
X104276239Y-105859827D01*
X104223643Y-105977429D01*
X104169530Y-106044061D01*
X104081333Y-106135781D01*
X104280888Y-106356606D01*
X104370410Y-106451223D01*
X104448407Y-106525576D01*
X104503966Y-106569664D01*
X104521855Y-106577431D01*
X104572693Y-106597082D01*
X104582113Y-106607923D01*
X104566872Y-106626616D01*
X104498621Y-106636924D01*
X104443648Y-106638415D01*
X104373869Y-106636632D01*
X104317637Y-106626537D01*
X104265085Y-106601013D01*
X104206346Y-106552946D01*
X104131551Y-106475217D01*
X104030835Y-106360710D01*
X103985138Y-106307729D01*
X103897754Y-106217004D01*
X103836183Y-106180767D01*
X103797255Y-106199847D01*
X103777800Y-106275076D01*
X103774070Y-106363012D01*
X103776600Y-106466687D01*
X103788715Y-106527857D01*
X103817203Y-106564934D01*
X103857923Y-106590482D01*
X103894759Y-106612382D01*
X103901073Y-106625769D01*
X103868937Y-106632662D01*
X103790422Y-106635081D01*
X103682593Y-106635131D01*
X103559582Y-106633375D01*
X103490684Y-106628287D01*
X103469063Y-106618649D01*
X103487882Y-106603245D01*
X103492017Y-106601200D01*
X103517777Y-106586485D01*
X103536121Y-106564857D01*
X103548307Y-106526851D01*
X103555591Y-106463001D01*
X103559233Y-106363840D01*
X103560490Y-106219901D01*
X103560619Y-106089556D01*
X103774070Y-106089556D01*
X103879063Y-106089556D01*
X103976032Y-106070957D01*
X104031524Y-106021787D01*
X104070962Y-105921285D01*
X104064440Y-105815907D01*
X104019427Y-105721833D01*
X103943394Y-105655246D01*
X103851686Y-105632173D01*
X103812212Y-105634866D01*
X103789073Y-105651513D01*
X103777910Y-105694963D01*
X103774360Y-105778066D01*
X103774070Y-105860864D01*
X103774070Y-106089556D01*
X103560619Y-106089556D01*
X103560624Y-106084896D01*
X103560227Y-105903359D01*
X103559599Y-105860864D01*
X103558316Y-105774004D01*
X103553814Y-105688029D01*
X103545643Y-105636635D01*
X103532725Y-105611020D01*
X103513981Y-105602384D01*
X103501439Y-105601681D01*
X103443067Y-105587679D01*
X103423409Y-105571188D01*
X103439840Y-105555182D01*
X103503560Y-105544798D01*
X103601159Y-105539775D01*
X103719228Y-105539848D01*
G37*
G36*
X105451140Y-105665288D02*
G01*
X105449621Y-105743035D01*
X105440271Y-105768547D01*
X105415904Y-105750568D01*
X105397779Y-105730222D01*
X105332142Y-105685761D01*
X105237025Y-105654173D01*
X105214826Y-105650253D01*
X105085234Y-105631452D01*
X105085234Y-106101900D01*
X105085234Y-106572349D01*
X105169088Y-106602975D01*
X105197988Y-106617458D01*
X105185415Y-106626777D01*
X105125325Y-106631913D01*
X105011672Y-106633850D01*
X104978511Y-106633944D01*
X104850678Y-106632780D01*
X104777122Y-106628188D01*
X104751183Y-106619108D01*
X104766198Y-106604481D01*
X104772689Y-106601200D01*
X104798896Y-106586152D01*
X104817406Y-106563972D01*
X104829558Y-106524973D01*
X104836686Y-106459472D01*
X104840126Y-106357782D01*
X104841215Y-106210220D01*
X104841296Y-106103888D01*
X104841296Y-105639664D01*
X104696459Y-105655041D01*
X104597299Y-105674379D01*
X104516919Y-105705121D01*
X104495809Y-105719223D01*
X104459161Y-105746960D01*
X104446164Y-105734482D01*
X104449117Y-105672155D01*
X104450071Y-105661985D01*
X104460144Y-105555942D01*
X104955642Y-105547564D01*
X105451140Y-105539186D01*
X105451140Y-105665288D01*
G37*
G36*
X106524715Y-105542222D02*
G01*
X106627032Y-105548482D01*
X106698784Y-105561996D01*
X106755160Y-105585287D01*
X106795911Y-105610299D01*
X106866201Y-105668545D01*
X106898976Y-105735775D01*
X106908956Y-105809734D01*
X106908821Y-105896797D01*
X106885219Y-105961292D01*
X106826817Y-106030985D01*
X106812906Y-106045053D01*
X106735389Y-106112519D01*
X106663880Y-106142920D01*
X106574778Y-106149076D01*
X106442137Y-106147611D01*
X106548013Y-106095714D01*
X106655343Y-106018617D01*
X106705567Y-105920983D01*
X106698324Y-105804087D01*
X106643944Y-105697219D01*
X106557881Y-105640695D01*
X106497293Y-105632173D01*
X106426891Y-105632173D01*
X106426891Y-106088582D01*
X106426891Y-106544991D01*
X106510744Y-106590482D01*
X106547714Y-106612443D01*
X106554229Y-106625979D01*
X106522346Y-106633217D01*
X106444122Y-106636284D01*
X106336252Y-106637194D01*
X106212659Y-106637037D01*
X106141424Y-106633729D01*
X106113931Y-106625179D01*
X106121564Y-106609295D01*
X106145676Y-106590948D01*
X106171795Y-106569712D01*
X106190172Y-106541925D01*
X106202165Y-106497498D01*
X106209128Y-106426343D01*
X106212421Y-106318371D01*
X106213398Y-106163495D01*
X106213445Y-106087072D01*
X106213445Y-105630663D01*
X106137215Y-105601681D01*
X106080934Y-105575046D01*
X106060984Y-105556697D01*
X106089360Y-105550086D01*
X106166030Y-105544804D01*
X106278306Y-105541496D01*
X106376643Y-105540696D01*
X106524715Y-105542222D01*
G37*
G36*
X107530964Y-105542223D02*
G01*
X107633288Y-105548484D01*
X107705047Y-105562001D01*
X107761431Y-105585295D01*
X107802153Y-105610285D01*
X107889709Y-105697680D01*
X107919081Y-105802315D01*
X107890166Y-105922830D01*
X107833443Y-106018333D01*
X107742980Y-106143214D01*
X107907990Y-106342012D01*
X107999415Y-106442523D01*
X108089399Y-106525233D01*
X108162057Y-106575812D01*
X108172335Y-106580505D01*
X108271669Y-106620200D01*
X108137874Y-106631266D01*
X108004840Y-106628600D01*
X107896680Y-106590181D01*
X107797540Y-106507792D01*
X107722180Y-106415733D01*
X107618756Y-106283661D01*
X107541610Y-106204565D01*
X107487623Y-106177988D01*
X107453680Y-106203473D01*
X107436663Y-106280563D01*
X107433133Y-106373345D01*
X107435019Y-106479216D01*
X107444795Y-106540730D01*
X107468635Y-106574488D01*
X107512714Y-106597093D01*
X107516987Y-106598793D01*
X107549206Y-106614779D01*
X107543431Y-106624995D01*
X107492797Y-106630828D01*
X107390435Y-106633665D01*
X107341657Y-106634202D01*
X107217874Y-106634425D01*
X107146272Y-106631122D01*
X107118066Y-106622353D01*
X107124472Y-106606180D01*
X107143457Y-106590460D01*
X107167256Y-106567577D01*
X107184369Y-106533922D01*
X107196207Y-106479480D01*
X107204183Y-106394238D01*
X107209709Y-106268183D01*
X107214198Y-106091300D01*
X107214235Y-106089556D01*
X107433133Y-106089556D01*
X107538783Y-106089556D01*
X107630763Y-106073541D01*
X107675998Y-106030576D01*
X107708609Y-105921107D01*
X107699443Y-105811198D01*
X107655167Y-105716254D01*
X107582445Y-105651679D01*
X107503614Y-105632173D01*
X107467732Y-105635778D01*
X107446694Y-105655135D01*
X107436552Y-105703053D01*
X107433359Y-105792345D01*
X107433133Y-105860864D01*
X107433133Y-106089556D01*
X107214235Y-106089556D01*
X107214260Y-106088389D01*
X107219159Y-105860864D01*
X107224079Y-105632333D01*
X107145653Y-105602515D01*
X107088371Y-105575637D01*
X107067227Y-105556697D01*
X107095603Y-105550086D01*
X107172272Y-105544804D01*
X107284549Y-105541496D01*
X107382886Y-105540696D01*
X107530964Y-105542223D01*
G37*
G36*
X111707235Y-105345707D02*
G01*
X111714956Y-105379608D01*
X111721725Y-105465034D01*
X111727161Y-105592526D01*
X111730879Y-105752629D01*
X111732495Y-105935884D01*
X111732533Y-105969387D01*
X111732533Y-106577431D01*
X111806964Y-106577431D01*
X111871528Y-106588674D01*
X111900240Y-106607923D01*
X111880805Y-106622627D01*
X111803676Y-106632692D01*
X111671989Y-106637808D01*
X111591019Y-106638415D01*
X111446659Y-106636046D01*
X111345793Y-106629346D01*
X111295005Y-106618931D01*
X111291921Y-106610505D01*
X111342769Y-106585033D01*
X111397119Y-106572390D01*
X111473349Y-106562185D01*
X111481722Y-106067929D01*
X111490094Y-105573674D01*
X111379326Y-105619956D01*
X111305102Y-105645441D01*
X111257235Y-105651687D01*
X111251526Y-105649205D01*
X111242523Y-105639748D01*
X111243857Y-105629145D01*
X111264262Y-105610273D01*
X111312474Y-105576009D01*
X111397228Y-105519228D01*
X111470921Y-105470281D01*
X111570573Y-105407708D01*
X111651548Y-105363594D01*
X111700422Y-105345017D01*
X111707235Y-105345707D01*
G37*
G36*
X105748843Y-97902879D02*
G01*
X105752594Y-97918870D01*
X105744342Y-97925257D01*
X105692567Y-97959068D01*
X105605715Y-98015251D01*
X105500064Y-98083284D01*
X105468159Y-98103775D01*
X105145873Y-98345492D01*
X104853089Y-98635593D01*
X104597686Y-98965439D01*
X104432290Y-99239512D01*
X104262739Y-99619823D01*
X104147603Y-100022128D01*
X104087479Y-100439736D01*
X104082966Y-100865958D01*
X104134659Y-101294103D01*
X104218137Y-101637695D01*
X104297763Y-101852530D01*
X104410831Y-102089226D01*
X104546163Y-102328076D01*
X104692580Y-102549369D01*
X104838905Y-102733397D01*
X104840719Y-102735414D01*
X104936849Y-102842137D01*
X104847507Y-102704922D01*
X104661717Y-102366434D01*
X104519679Y-101991454D01*
X104426700Y-101599513D01*
X104379220Y-101324386D01*
X104526405Y-101173741D01*
X104673004Y-101039791D01*
X104859200Y-100894178D01*
X105068391Y-100748916D01*
X105283972Y-100616014D01*
X105344418Y-100581993D01*
X105448801Y-100523758D01*
X105505634Y-100487748D01*
X105521048Y-100467251D01*
X105501172Y-100455555D01*
X105466386Y-100448447D01*
X105374910Y-100432253D01*
X105527371Y-100346777D01*
X105628516Y-100296547D01*
X105763209Y-100238256D01*
X105906896Y-100182359D01*
X105948348Y-100167527D01*
X106216863Y-100073755D01*
X106056945Y-100017437D01*
X105811157Y-99899525D01*
X105598290Y-99733048D01*
X105422964Y-99523462D01*
X105289800Y-99276222D01*
X105207124Y-99014027D01*
X105181320Y-98876890D01*
X105177338Y-98796321D01*
X105195687Y-98771751D01*
X105236873Y-98802612D01*
X105301402Y-98888333D01*
X105308972Y-98899621D01*
X105474050Y-99108568D01*
X105671513Y-99294646D01*
X105888013Y-99447824D01*
X106110201Y-99558071D01*
X106239987Y-99599268D01*
X106318035Y-99616930D01*
X106436532Y-99642165D01*
X106576066Y-99670883D01*
X106655582Y-99686847D01*
X106794609Y-99714676D01*
X106919710Y-99740060D01*
X107013172Y-99759389D01*
X107046362Y-99766504D01*
X107118978Y-99798999D01*
X107205246Y-99859691D01*
X107244561Y-99894655D01*
X107318055Y-99953573D01*
X107406521Y-100007003D01*
X107497284Y-100049964D01*
X107577667Y-100077477D01*
X107634994Y-100084564D01*
X107656588Y-100066245D01*
X107654419Y-100055644D01*
X107658668Y-100037115D01*
X107700501Y-100065026D01*
X107720424Y-100082593D01*
X107773348Y-100146943D01*
X107837286Y-100247824D01*
X107899896Y-100365428D01*
X107910385Y-100387515D01*
X108013034Y-100605211D01*
X108095786Y-100773299D01*
X108162263Y-100898441D01*
X108216086Y-100987295D01*
X108260878Y-101046520D01*
X108278912Y-101065148D01*
X108325392Y-101104574D01*
X108337111Y-101100316D01*
X108331084Y-101080495D01*
X108319342Y-101035011D01*
X108338198Y-101038543D01*
X108388465Y-101091789D01*
X108470956Y-101195450D01*
X108482933Y-101211145D01*
X108555450Y-101310522D01*
X108597179Y-101384489D01*
X108616394Y-101454463D01*
X108621372Y-101541863D01*
X108621359Y-101569428D01*
X108613340Y-101696298D01*
X108583577Y-101783739D01*
X108520956Y-101852376D01*
X108438836Y-101908151D01*
X108319539Y-101964493D01*
X108227722Y-101968690D01*
X108158092Y-101920025D01*
X108125018Y-101865694D01*
X108077788Y-101790858D01*
X108011901Y-101740063D01*
X107913434Y-101706244D01*
X107768467Y-101682339D01*
X107762118Y-101681564D01*
X107588474Y-101636148D01*
X107478871Y-101577309D01*
X107372767Y-101507184D01*
X107272576Y-101447071D01*
X107185807Y-101400302D01*
X107119963Y-101370214D01*
X107082552Y-101360141D01*
X107081080Y-101373418D01*
X107123051Y-101413378D01*
X107139367Y-101426480D01*
X107245601Y-101542704D01*
X107329706Y-101698871D01*
X107381679Y-101875159D01*
X107388493Y-101920169D01*
X107425065Y-102081516D01*
X107490842Y-102191625D01*
X107588263Y-102254054D01*
X107624081Y-102264030D01*
X107700249Y-102283247D01*
X107748776Y-102300626D01*
X107749798Y-102301209D01*
X107748262Y-102323501D01*
X107708044Y-102354424D01*
X107648220Y-102383042D01*
X107587866Y-102398417D01*
X107579357Y-102398919D01*
X107523625Y-102420074D01*
X107457356Y-102470185D01*
X107451151Y-102476230D01*
X107381691Y-102528333D01*
X107315519Y-102552288D01*
X107311036Y-102552461D01*
X107212115Y-102530130D01*
X107104807Y-102472589D01*
X107025878Y-102404850D01*
X106952955Y-102351211D01*
X106880846Y-102323017D01*
X106820007Y-102299210D01*
X106814437Y-102272944D01*
X106859392Y-102252613D01*
X106924188Y-102246300D01*
X107021489Y-102245061D01*
X106919607Y-102157903D01*
X106823282Y-102090287D01*
X106710810Y-102030801D01*
X106683293Y-102019406D01*
X106590169Y-101977983D01*
X106555234Y-101944329D01*
X106576979Y-101913760D01*
X106640336Y-101886202D01*
X106707146Y-101855184D01*
X106725835Y-101818094D01*
X106696261Y-101763893D01*
X106637991Y-101701025D01*
X106541099Y-101627973D01*
X106450383Y-101614165D01*
X106357820Y-101659664D01*
X106309340Y-101703650D01*
X106218727Y-101833382D01*
X106149792Y-102006609D01*
X106103842Y-102209344D01*
X106082183Y-102427602D01*
X106086123Y-102647397D01*
X106116968Y-102854741D01*
X106176024Y-103035650D01*
X106183415Y-103051506D01*
X106244076Y-103177551D01*
X106228226Y-103021354D01*
X106219691Y-102893555D01*
X106227185Y-102823646D01*
X106252595Y-102811195D01*
X106297810Y-102855770D01*
X106364718Y-102956939D01*
X106382167Y-102986122D01*
X106601447Y-103305187D01*
X106857211Y-103585063D01*
X106984073Y-103697117D01*
X107160103Y-103841755D01*
X107470196Y-103820397D01*
X107900488Y-103766173D01*
X108298848Y-103663530D01*
X108673750Y-103509728D01*
X108995858Y-103326751D01*
X109090801Y-103268099D01*
X109162577Y-103228655D01*
X109199284Y-103214785D01*
X109201681Y-103216688D01*
X109184207Y-103257840D01*
X109137530Y-103334424D01*
X109070267Y-103434033D01*
X108991037Y-103544258D01*
X108908457Y-103652693D01*
X108843160Y-103732898D01*
X108639380Y-103937510D01*
X108390423Y-104129786D01*
X108112051Y-104299645D01*
X107820029Y-104437005D01*
X107643752Y-104499961D01*
X107258720Y-104589324D01*
X106867510Y-104621913D01*
X106477301Y-104599343D01*
X106095271Y-104523232D01*
X105728598Y-104395193D01*
X105384461Y-104216844D01*
X105070038Y-103989799D01*
X104966443Y-103897342D01*
X104893702Y-103833067D01*
X104839319Y-103793089D01*
X104817508Y-103785773D01*
X104832207Y-103811469D01*
X104883087Y-103870893D01*
X104962383Y-103955491D01*
X105062329Y-104056712D01*
X105074218Y-104068463D01*
X105381828Y-104331582D01*
X105715496Y-104541419D01*
X106071386Y-104696231D01*
X106445658Y-104794277D01*
X106753803Y-104830565D01*
X106881510Y-104839760D01*
X106981166Y-104850840D01*
X107040745Y-104862221D01*
X107051994Y-104869846D01*
X107013342Y-104889454D01*
X106926973Y-104912986D01*
X106805859Y-104938333D01*
X106662969Y-104963385D01*
X106511272Y-104986035D01*
X106363738Y-105004174D01*
X106233337Y-105015692D01*
X106137215Y-105018583D01*
X106051966Y-105013110D01*
X105927871Y-105000640D01*
X105786363Y-104983434D01*
X105725570Y-104975154D01*
X105480331Y-104935335D01*
X105273132Y-104888104D01*
X105081030Y-104826652D01*
X104881083Y-104744170D01*
X104765066Y-104690070D01*
X104384775Y-104474699D01*
X104044387Y-104214082D01*
X103746547Y-103911254D01*
X103553856Y-103650412D01*
X104721325Y-103650412D01*
X104728897Y-103666202D01*
X104745930Y-103688295D01*
X104790437Y-103735701D01*
X104810304Y-103735495D01*
X104810804Y-103730144D01*
X104789967Y-103704691D01*
X104757443Y-103676783D01*
X104721325Y-103650412D01*
X103553856Y-103650412D01*
X103493901Y-103569252D01*
X103289096Y-103191111D01*
X103154150Y-102842137D01*
X103053695Y-102432453D01*
X103013612Y-102014918D01*
X103033903Y-101589302D01*
X103114567Y-101155377D01*
X103153758Y-101012605D01*
X103166077Y-100961713D01*
X103159694Y-100959509D01*
X103138711Y-100998120D01*
X103107229Y-101069675D01*
X103069349Y-101166301D01*
X103058944Y-101194599D01*
X102982604Y-101430369D01*
X102931492Y-101655033D01*
X102902895Y-101887839D01*
X102894101Y-102148031D01*
X102897653Y-102338991D01*
X102920467Y-102667271D01*
X102967323Y-102954375D01*
X103041827Y-103216587D01*
X103147586Y-103470190D01*
X103148754Y-103472615D01*
X103200196Y-103585226D01*
X103220457Y-103645520D01*
X103209363Y-103653689D01*
X103166742Y-103609928D01*
X103101128Y-103526095D01*
X102907150Y-103229185D01*
X102736145Y-102892228D01*
X102596421Y-102534372D01*
X102496285Y-102174765D01*
X102479695Y-102093653D01*
X102457352Y-101931825D01*
X102442129Y-101731002D01*
X102434252Y-101509712D01*
X102433946Y-101286486D01*
X102441437Y-101079852D01*
X102455794Y-100921128D01*
X103164226Y-100921128D01*
X103179472Y-100936374D01*
X103194718Y-100921128D01*
X103179472Y-100905882D01*
X103164226Y-100921128D01*
X102455794Y-100921128D01*
X102456951Y-100908338D01*
X102464657Y-100858121D01*
X102574290Y-100412178D01*
X102738080Y-99989099D01*
X102952162Y-99592976D01*
X103212668Y-99227900D01*
X103515734Y-98897962D01*
X103857493Y-98607254D01*
X104234080Y-98359867D01*
X104641628Y-98159892D01*
X105076272Y-98011420D01*
X105179518Y-97985023D01*
X105337511Y-97950079D01*
X105482225Y-97923464D01*
X105604874Y-97906105D01*
X105696675Y-97898934D01*
X105748843Y-97902879D01*
G37*
G36*
X107649831Y-101883787D02*
G01*
X107912907Y-102094434D01*
X108154417Y-102249070D01*
X108375680Y-102348213D01*
X108578009Y-102392384D01*
X108762721Y-102382099D01*
X108849035Y-102356641D01*
X108937809Y-102316561D01*
X109004524Y-102275508D01*
X109020059Y-102261180D01*
X109065292Y-102222666D01*
X109093501Y-102224284D01*
X109090739Y-102262785D01*
X109085668Y-102303620D01*
X109113721Y-102302618D01*
X109167324Y-102263363D01*
X109234120Y-102194925D01*
X109333860Y-102081326D01*
X109315561Y-102194091D01*
X109266180Y-102340678D01*
X109167876Y-102456360D01*
X109064466Y-102524065D01*
X108942497Y-102588578D01*
X109134479Y-102570840D01*
X109245920Y-102556465D01*
X109339456Y-102537241D01*
X109386039Y-102521217D01*
X109434914Y-102510883D01*
X109446846Y-102534178D01*
X109415126Y-102567707D01*
X109385769Y-102608301D01*
X109384634Y-102617300D01*
X109406534Y-102636353D01*
X109464605Y-102621981D01*
X109547399Y-102578860D01*
X109643470Y-102511669D01*
X109643817Y-102511396D01*
X109765786Y-102415528D01*
X109699893Y-102522110D01*
X109604638Y-102639454D01*
X109477600Y-102747583D01*
X109341651Y-102828752D01*
X109269518Y-102855992D01*
X109115265Y-102880108D01*
X108935676Y-102878944D01*
X108835774Y-102867020D01*
X108616197Y-102804580D01*
X108386686Y-102691852D01*
X108156865Y-102536311D01*
X107936360Y-102345434D01*
X107734795Y-102126694D01*
X107561794Y-101887567D01*
X107549709Y-101868159D01*
X107454885Y-101714050D01*
X107649831Y-101883787D01*
G37*
G36*
X105983623Y-98771429D02*
G01*
X106147987Y-99025112D01*
X106353414Y-99248831D01*
X106588173Y-99431026D01*
X106739436Y-99516192D01*
X106845804Y-99569183D01*
X106927330Y-99612336D01*
X106971419Y-99638872D01*
X106975750Y-99643332D01*
X106968127Y-99653295D01*
X106936787Y-99643450D01*
X106930012Y-99641325D01*
X106886832Y-99632088D01*
X106800764Y-99616469D01*
X106689158Y-99597596D01*
X106670828Y-99594603D01*
X106463606Y-99554982D01*
X106281481Y-99508586D01*
X106133708Y-99458482D01*
X106029540Y-99407739D01*
X105982034Y-99366155D01*
X105918401Y-99230267D01*
X105874188Y-99055637D01*
X105853723Y-98862610D01*
X105853836Y-98763318D01*
X105862785Y-98542737D01*
X105983623Y-98771429D01*
G37*
D14*
%TO.C,SW8*%
X159635000Y-83465000D02*
X173605000Y-83465000D01*
X159635000Y-97435000D02*
X159635000Y-83465000D01*
X173605000Y-83465000D02*
X173605000Y-97435000D01*
X173605000Y-97435000D02*
X159635000Y-97435000D01*
%TO.C,D5*%
X119330000Y-61700000D02*
X119980000Y-61700000D01*
X120580000Y-60580000D02*
X120580000Y-62820000D01*
X120700000Y-60580000D02*
X120700000Y-62820000D01*
X120820000Y-60580000D02*
X120820000Y-62820000D01*
X124870000Y-61700000D02*
X124220000Y-61700000D01*
X119980000Y-60580000D02*
X124220000Y-60580000D01*
X124220000Y-62820000D01*
X119980000Y-62820000D01*
X119980000Y-60580000D01*
%TO.C,D2*%
X117380000Y-100700000D02*
X118030000Y-100700000D01*
X118630000Y-99580000D02*
X118630000Y-101820000D01*
X118750000Y-99580000D02*
X118750000Y-101820000D01*
X118870000Y-99580000D02*
X118870000Y-101820000D01*
X122920000Y-100700000D02*
X122270000Y-100700000D01*
X118030000Y-99580000D02*
X122270000Y-99580000D01*
X122270000Y-101820000D01*
X118030000Y-101820000D01*
X118030000Y-99580000D01*
D15*
%TO.C,U2*%
X97790000Y-78359000D02*
X97790000Y-61214000D01*
X99695000Y-80264000D02*
X113665000Y-80264000D01*
X102185000Y-59309000D02*
X102188728Y-58398728D01*
X102688728Y-57899000D02*
X110684000Y-57899000D01*
X111184000Y-58399000D02*
X111184000Y-59309000D01*
D16*
X113665000Y-59309000D02*
X99695000Y-59309000D01*
D15*
X113665000Y-59309000D02*
X99695000Y-59309000D01*
X115570000Y-78359000D02*
X115570000Y-61214000D01*
X97790000Y-61214000D02*
G75*
G02*
X99695000Y-59309000I1905001J-1D01*
G01*
X99695000Y-80264000D02*
G75*
G02*
X97790000Y-78359000I1J1905001D01*
G01*
X102188728Y-58398728D02*
G75*
G02*
X102688728Y-57899001I500018J-291D01*
G01*
X110684000Y-57899000D02*
G75*
G02*
X111184000Y-58399000I0J-500000D01*
G01*
X113665000Y-59309000D02*
G75*
G02*
X115570000Y-61214000I0J-1905000D01*
G01*
X115570000Y-78359000D02*
G75*
G02*
X113665000Y-80264000I-1905000J0D01*
G01*
D17*
X97982000Y-59550000D02*
G75*
G02*
X97478000Y-59550000I-252000J0D01*
G01*
X97478000Y-59550000D02*
G75*
G02*
X97982000Y-59550000I252000J0D01*
G01*
X99125000Y-60430000D02*
G75*
G02*
X98621000Y-60430000I-252000J0D01*
G01*
X98621000Y-60430000D02*
G75*
G02*
X99125000Y-60430000I252000J0D01*
G01*
D14*
%TO.C,SW7*%
X159635000Y-64415000D02*
X173605000Y-64415000D01*
X159635000Y-78385000D02*
X159635000Y-64415000D01*
X173605000Y-64415000D02*
X173605000Y-78385000D01*
X173605000Y-78385000D02*
X159635000Y-78385000D01*
%TO.C,D3*%
X156930000Y-100300000D02*
X157580000Y-100300000D01*
X158180000Y-99180000D02*
X158180000Y-101420000D01*
X158300000Y-99180000D02*
X158300000Y-101420000D01*
X158420000Y-99180000D02*
X158420000Y-101420000D01*
X162470000Y-100300000D02*
X161820000Y-100300000D01*
X157580000Y-99180000D02*
X161820000Y-99180000D01*
X161820000Y-101420000D01*
X157580000Y-101420000D01*
X157580000Y-99180000D01*
%TO.C,D4*%
X159240000Y-61600000D02*
X159890000Y-61600000D01*
X160490000Y-60480000D02*
X160490000Y-62720000D01*
X160610000Y-60480000D02*
X160610000Y-62720000D01*
X160730000Y-60480000D02*
X160730000Y-62720000D01*
X164780000Y-61600000D02*
X164130000Y-61600000D01*
X159890000Y-60480000D02*
X164130000Y-60480000D01*
X164130000Y-62720000D01*
X159890000Y-62720000D01*
X159890000Y-60480000D01*
%TO.C,D7*%
X137580000Y-82000000D02*
X138230000Y-82000000D01*
X138830000Y-80880000D02*
X138830000Y-83120000D01*
X138950000Y-80880000D02*
X138950000Y-83120000D01*
X139070000Y-80880000D02*
X139070000Y-83120000D01*
X143120000Y-82000000D02*
X142470000Y-82000000D01*
X138230000Y-80880000D02*
X142470000Y-80880000D01*
X142470000Y-83120000D01*
X138230000Y-83120000D01*
X138230000Y-80880000D01*
%TO.C,SW5*%
X140585000Y-83465000D02*
X154555000Y-83465000D01*
X140585000Y-97435000D02*
X140585000Y-83465000D01*
X154555000Y-83465000D02*
X154555000Y-97435000D01*
X154555000Y-97435000D02*
X140585000Y-97435000D01*
%TO.C,D6*%
X140030000Y-61700000D02*
X140680000Y-61700000D01*
X141280000Y-60580000D02*
X141280000Y-62820000D01*
X141400000Y-60580000D02*
X141400000Y-62820000D01*
X141520000Y-60580000D02*
X141520000Y-62820000D01*
X145570000Y-61700000D02*
X144920000Y-61700000D01*
X140680000Y-60580000D02*
X144920000Y-60580000D01*
X144920000Y-62820000D01*
X140680000Y-62820000D01*
X140680000Y-60580000D01*
%TO.C,SW9*%
X159635000Y-102515000D02*
X173605000Y-102515000D01*
X159635000Y-116485000D02*
X159635000Y-102515000D01*
X173605000Y-102515000D02*
X173605000Y-116485000D01*
X173605000Y-116485000D02*
X159635000Y-116485000D01*
%TO.C,SW1*%
X121535000Y-64415000D02*
X135505000Y-64415000D01*
X121535000Y-78385000D02*
X121535000Y-64415000D01*
X135505000Y-64415000D02*
X135505000Y-78385000D01*
X135505000Y-78385000D02*
X121535000Y-78385000D01*
%TO.C,D1*%
X137130000Y-100700000D02*
X137780000Y-100700000D01*
X138380000Y-99580000D02*
X138380000Y-101820000D01*
X138500000Y-99580000D02*
X138500000Y-101820000D01*
X138620000Y-99580000D02*
X138620000Y-101820000D01*
X142670000Y-100700000D02*
X142020000Y-100700000D01*
X137780000Y-99580000D02*
X142020000Y-99580000D01*
X142020000Y-101820000D01*
X137780000Y-101820000D01*
X137780000Y-99580000D01*
%TO.C,SW3*%
X121535000Y-102515000D02*
X135505000Y-102515000D01*
X121535000Y-116485000D02*
X121535000Y-102515000D01*
X135505000Y-102515000D02*
X135505000Y-116485000D01*
X135505000Y-116485000D02*
X121535000Y-116485000D01*
%TO.C,SW6*%
X140585000Y-102515000D02*
X154555000Y-102515000D01*
X140585000Y-116485000D02*
X140585000Y-102515000D01*
X154555000Y-102515000D02*
X154555000Y-116485000D01*
X154555000Y-116485000D02*
X140585000Y-116485000D01*
%TO.C,SW4*%
X140585000Y-64415000D02*
X154555000Y-64415000D01*
X140585000Y-78385000D02*
X140585000Y-64415000D01*
X154555000Y-64415000D02*
X154555000Y-78385000D01*
X154555000Y-78385000D02*
X140585000Y-78385000D01*
%TO.C,SW2*%
X121535000Y-83465000D02*
X135505000Y-83465000D01*
X121535000Y-97435000D02*
X121535000Y-83465000D01*
X135505000Y-83465000D02*
X135505000Y-97435000D01*
X135505000Y-97435000D02*
X121535000Y-97435000D01*
%TO.C,D8*%
X118530000Y-82000000D02*
X119180000Y-82000000D01*
X119780000Y-80880000D02*
X119780000Y-83120000D01*
X119900000Y-80880000D02*
X119900000Y-83120000D01*
X120020000Y-80880000D02*
X120020000Y-83120000D01*
X124070000Y-82000000D02*
X123420000Y-82000000D01*
X119180000Y-80880000D02*
X123420000Y-80880000D01*
X123420000Y-83120000D01*
X119180000Y-83120000D01*
X119180000Y-80880000D01*
%TO.C,D9*%
X156630000Y-82000000D02*
X157280000Y-82000000D01*
X157880000Y-80880000D02*
X157880000Y-83120000D01*
X158000000Y-80880000D02*
X158000000Y-83120000D01*
X158120000Y-80880000D02*
X158120000Y-83120000D01*
X162170000Y-82000000D02*
X161520000Y-82000000D01*
X157280000Y-80880000D02*
X161520000Y-80880000D01*
X161520000Y-83120000D01*
X157280000Y-83120000D01*
X157280000Y-80880000D01*
%TD*%
M02*
