M48
; DRILL file {KiCad 9.0.7} date 2026-02-23T12:50:17+0400
; FORMAT={-:-/ absolute / metric / decimal}
; #@! TF.CreationDate,2026-02-23T12:50:17+04:00
; #@! TF.GenerationSoftware,Kicad,Pcbnew,9.0.7
; #@! TF.FileFunction,Plated,1,2,PTH
FMAT,2
METRIC
; #@! TA.AperFunction,Plated,PTH,ComponentDrill
T1C0.800
; #@! TA.AperFunction,Plated,PTH,ComponentDrill
T2C0.889
; #@! TA.AperFunction,Plated,PTH,ComponentDrill
T3C1.500
%
G90
G05
T1
X116.34Y-100.7
X117.49Y-82.0
X118.29Y-61.7
X123.96Y-100.7
X125.11Y-82.0
X125.91Y-61.7
X136.09Y-100.7
X136.54Y-82.0
X138.99Y-61.7
X143.71Y-100.7
X144.16Y-82.0
X146.61Y-61.7
X155.59Y-82.0
X155.89Y-100.3
X158.2Y-61.6
X163.21Y-82.0
X163.51Y-100.3
X165.82Y-61.6
T2
X99.06Y-62.23
X99.06Y-64.77
X99.06Y-67.31
X99.06Y-69.85
X99.06Y-72.39
X99.06Y-74.93
X99.06Y-77.47
X114.3Y-62.23
X114.3Y-64.77
X114.3Y-67.31
X114.3Y-69.85
X114.3Y-72.39
X114.3Y-74.93
X114.3Y-77.47
T3
X124.71Y-68.86
X124.71Y-87.91
X124.71Y-106.96
X131.06Y-66.32
X131.06Y-85.37
X131.06Y-104.42
X143.76Y-68.86
X143.76Y-87.91
X143.76Y-106.96
X150.11Y-66.32
X150.11Y-85.37
X150.11Y-104.42
X162.81Y-68.86
X162.81Y-87.91
X162.81Y-106.96
X169.16Y-66.32
X169.16Y-85.37
X169.16Y-104.42
M30
