%TF.GenerationSoftware,KiCad,Pcbnew,9.0.7*%
%TF.CreationDate,2026-02-23T12:50:14+04:00*%
%TF.ProjectId,codeer,636f6465-6572-42e6-9b69-6361645f7063,rev?*%
%TF.SameCoordinates,Original*%
%TF.FileFunction,Copper,L2,Bot*%
%TF.FilePolarity,Positive*%
%FSLAX46Y46*%
G04 Gerber Fmt 4.6, Leading zero omitted, Abs format (unit mm)*
G04 Created by KiCad (PCBNEW 9.0.7) date 2026-02-23 12:50:14*
%MOMM*%
%LPD*%
G01*
G04 APERTURE LIST*
G04 Aperture macros list*
%AMRoundRect*
0 Rectangle with rounded corners*
0 $1 Rounding radius*
0 $2 $3 $4 $5 $6 $7 $8 $9 X,Y pos of 4 corners*
0 Add a 4 corners polygon primitive as box body*
4,1,4,$2,$3,$4,$5,$6,$7,$8,$9,$2,$3,0*
0 Add four circle primitives for the rounded corners*
1,1,$1+$1,$2,$3*
1,1,$1+$1,$4,$5*
1,1,$1+$1,$6,$7*
1,1,$1+$1,$8,$9*
0 Add four rect primitives between the rounded corners*
20,1,$1+$1,$2,$3,$4,$5,0*
20,1,$1+$1,$4,$5,$6,$7,0*
20,1,$1+$1,$6,$7,$8,$9,0*
20,1,$1+$1,$8,$9,$2,$3,0*%
G04 Aperture macros list end*
%TA.AperFunction,ComponentPad*%
%ADD10C,2.200000*%
%TD*%
%TA.AperFunction,ComponentPad*%
%ADD11RoundRect,0.250000X-0.550000X-0.550000X0.550000X-0.550000X0.550000X0.550000X-0.550000X0.550000X0*%
%TD*%
%TA.AperFunction,ComponentPad*%
%ADD12C,1.600000*%
%TD*%
%TA.AperFunction,ComponentPad*%
%ADD13C,1.524000*%
%TD*%
%TA.AperFunction,Conductor*%
%ADD14C,0.200000*%
%TD*%
G04 APERTURE END LIST*
D10*
%TO.P,SW8,1,1*%
%TO.N,col 3*%
X169160000Y-85370000D03*
%TO.P,SW8,2,2*%
%TO.N,Net-(D9-A)*%
X162810000Y-87910000D03*
%TD*%
D11*
%TO.P,D5,1,K*%
%TO.N,row 2*%
X118290000Y-61700000D03*
D12*
%TO.P,D5,2,A*%
%TO.N,Net-(D5-A)*%
X125910000Y-61700000D03*
%TD*%
D11*
%TO.P,D2,1,K*%
%TO.N,row1*%
X116340000Y-100700000D03*
D12*
%TO.P,D2,2,A*%
%TO.N,Net-(D2-A)*%
X123960000Y-100700000D03*
%TD*%
D13*
%TO.P,U2,1,GPIO26/ADC0/A0*%
%TO.N,col 1*%
X99060000Y-62230000D03*
%TO.P,U2,2,GPIO27/ADC1/A1*%
%TO.N,col 2*%
X99060000Y-64770000D03*
%TO.P,U2,3,GPIO28/ADC2/A2*%
%TO.N,col 3*%
X99060000Y-67310000D03*
%TO.P,U2,4,GPIO29/ADC3/A3*%
%TO.N,row1*%
X99060000Y-69850000D03*
%TO.P,U2,5,GPIO6/SDA*%
%TO.N,row 2*%
X99060000Y-72390000D03*
%TO.P,U2,6,GPIO7/SCL*%
%TO.N,row 3*%
X99060000Y-74930000D03*
%TO.P,U2,7,GPIO0/TX*%
%TO.N,unconnected-(U2-GPIO0{slash}TX-Pad7)*%
X99060000Y-77470000D03*
%TO.P,U2,8,GPIO1/RX*%
%TO.N,unconnected-(U2-GPIO1{slash}RX-Pad8)*%
X114300000Y-77470000D03*
%TO.P,U2,9,GPIO2/SCK*%
%TO.N,unconnected-(U2-GPIO2{slash}SCK-Pad9)*%
X114300000Y-74930000D03*
%TO.P,U2,10,GPIO4/MISO*%
%TO.N,unconnected-(U2-GPIO4{slash}MISO-Pad10)*%
X114300000Y-72390000D03*
%TO.P,U2,11,GPIO3/MOSI*%
%TO.N,unconnected-(U2-GPIO3{slash}MOSI-Pad11)*%
X114300000Y-69850000D03*
%TO.P,U2,12,3V3*%
%TO.N,unconnected-(U2-3V3-Pad12)*%
X114300000Y-67310000D03*
%TO.P,U2,13,GND*%
%TO.N,GND*%
X114300000Y-64770000D03*
%TO.P,U2,14,VBUS*%
%TO.N,+5V*%
X114300000Y-62230000D03*
%TD*%
D10*
%TO.P,SW7,1,1*%
%TO.N,col 3*%
X169160000Y-66320000D03*
%TO.P,SW7,2,2*%
%TO.N,Net-(D4-A)*%
X162810000Y-68860000D03*
%TD*%
D11*
%TO.P,D3,1,K*%
%TO.N,row1*%
X155890000Y-100300000D03*
D12*
%TO.P,D3,2,A*%
%TO.N,Net-(D3-A)*%
X163510000Y-100300000D03*
%TD*%
D11*
%TO.P,D4,1,K*%
%TO.N,row 2*%
X158200000Y-61600000D03*
D12*
%TO.P,D4,2,A*%
%TO.N,Net-(D4-A)*%
X165820000Y-61600000D03*
%TD*%
D11*
%TO.P,D7,1,K*%
%TO.N,row 3*%
X136540000Y-82000000D03*
D12*
%TO.P,D7,2,A*%
%TO.N,Net-(D7-A)*%
X144160000Y-82000000D03*
%TD*%
D10*
%TO.P,SW5,1,1*%
%TO.N,col 1*%
X150110000Y-85370000D03*
%TO.P,SW5,2,2*%
%TO.N,Net-(D7-A)*%
X143760000Y-87910000D03*
%TD*%
D11*
%TO.P,D6,1,K*%
%TO.N,row 2*%
X138990000Y-61700000D03*
D12*
%TO.P,D6,2,A*%
%TO.N,Net-(D6-A)*%
X146610000Y-61700000D03*
%TD*%
D10*
%TO.P,SW9,1,1*%
%TO.N,col 3*%
X169160000Y-104420000D03*
%TO.P,SW9,2,2*%
%TO.N,Net-(D3-A)*%
X162810000Y-106960000D03*
%TD*%
%TO.P,SW1,1,1*%
%TO.N,col 2*%
X131060000Y-66320000D03*
%TO.P,SW1,2,2*%
%TO.N,Net-(D5-A)*%
X124710000Y-68860000D03*
%TD*%
D11*
%TO.P,D1,1,K*%
%TO.N,row1*%
X136090000Y-100700000D03*
D12*
%TO.P,D1,2,A*%
%TO.N,Net-(D1-A)*%
X143710000Y-100700000D03*
%TD*%
D10*
%TO.P,SW3,1,1*%
%TO.N,col 2*%
X131060000Y-104420000D03*
%TO.P,SW3,2,2*%
%TO.N,Net-(D2-A)*%
X124710000Y-106960000D03*
%TD*%
%TO.P,SW6,1,1*%
%TO.N,col 1*%
X150110000Y-104420000D03*
%TO.P,SW6,2,2*%
%TO.N,Net-(D1-A)*%
X143760000Y-106960000D03*
%TD*%
%TO.P,SW4,1,1*%
%TO.N,col 1*%
X150110000Y-66320000D03*
%TO.P,SW4,2,2*%
%TO.N,Net-(D6-A)*%
X143760000Y-68860000D03*
%TD*%
%TO.P,SW2,1,1*%
%TO.N,col 2*%
X131060000Y-85370000D03*
%TO.P,SW2,2,2*%
%TO.N,Net-(D8-A)*%
X124710000Y-87910000D03*
%TD*%
D11*
%TO.P,D8,1,K*%
%TO.N,row 3*%
X117490000Y-82000000D03*
D12*
%TO.P,D8,2,A*%
%TO.N,Net-(D8-A)*%
X125110000Y-82000000D03*
%TD*%
D11*
%TO.P,D9,1,K*%
%TO.N,row 3*%
X155590000Y-82000000D03*
D12*
%TO.P,D9,2,A*%
%TO.N,Net-(D9-A)*%
X163210000Y-82000000D03*
%TD*%
D14*
%TO.N,col 1*%
X100230000Y-63400000D02*
X147190000Y-63400000D01*
X99060000Y-62230000D02*
X100230000Y-63400000D01*
X147190000Y-63400000D02*
X150110000Y-66320000D01*
X150110000Y-66320000D02*
X150110000Y-104420000D01*
%TO.N,col 3*%
X169160000Y-104420000D02*
X169160000Y-66320000D01*
X94690000Y-67310000D02*
X99060000Y-67310000D01*
X169400000Y-60291000D02*
X94581000Y-60291000D01*
X94581000Y-60291000D02*
X94581000Y-67381000D01*
X169160000Y-60531000D02*
X169400000Y-60291000D01*
X94581000Y-67381000D02*
X94600000Y-67400000D01*
X94600000Y-67400000D02*
X94690000Y-67310000D01*
X169160000Y-66320000D02*
X169160000Y-60531000D01*
%TO.N,col 2*%
X100082000Y-65792000D02*
X99060000Y-64770000D01*
X130640000Y-65900000D02*
X131060000Y-66320000D01*
X100082000Y-65900000D02*
X130640000Y-65900000D01*
X100082000Y-65900000D02*
X100082000Y-65792000D01*
X131060000Y-66320000D02*
X131060000Y-104420000D01*
%TD*%
M02*
