%TF.GenerationSoftware,KiCad,Pcbnew,9.0.7*%
%TF.CreationDate,2026-02-23T12:50:14+04:00*%
%TF.ProjectId,codeer,636f6465-6572-42e6-9b69-6361645f7063,rev?*%
%TF.SameCoordinates,Original*%
%TF.FileFunction,Soldermask,Top*%
%TF.FilePolarity,Negative*%
%FSLAX46Y46*%
G04 Gerber Fmt 4.6, Leading zero omitted, Abs format (unit mm)*
G04 Created by KiCad (PCBNEW 9.0.7) date 2026-02-23 12:50:14*
%MOMM*%
%LPD*%
G01*
G04 APERTURE LIST*
G04 Aperture macros list*
%AMRoundRect*
0 Rectangle with rounded corners*
0 $1 Rounding radius*
0 $2 $3 $4 $5 $6 $7 $8 $9 X,Y pos of 4 corners*
0 Add a 4 corners polygon primitive as box body*
4,1,4,$2,$3,$4,$5,$6,$7,$8,$9,$2,$3,0*
0 Add four circle primitives for the rounded corners*
1,1,$1+$1,$2,$3*
1,1,$1+$1,$4,$5*
1,1,$1+$1,$6,$7*
1,1,$1+$1,$8,$9*
0 Add four rect primitives between the rounded corners*
20,1,$1+$1,$2,$3,$4,$5,0*
20,1,$1+$1,$4,$5,$6,$7,0*
20,1,$1+$1,$6,$7,$8,$9,0*
20,1,$1+$1,$8,$9,$2,$3,0*%
G04 Aperture macros list end*
%ADD10C,1.700000*%
%ADD11C,4.000000*%
%ADD12C,2.200000*%
%ADD13RoundRect,0.250000X-0.550000X-0.550000X0.550000X-0.550000X0.550000X0.550000X-0.550000X0.550000X0*%
%ADD14C,1.600000*%
%ADD15RoundRect,0.152400X1.063600X0.609600X-1.063600X0.609600X-1.063600X-0.609600X1.063600X-0.609600X0*%
%ADD16C,1.524000*%
%ADD17RoundRect,0.152400X-1.063600X-0.609600X1.063600X-0.609600X1.063600X0.609600X-1.063600X0.609600X0*%
G04 APERTURE END LIST*
D10*
%TO.C,SW8*%
X161540000Y-90450000D03*
D11*
X166620000Y-90450000D03*
D10*
X171700000Y-90450000D03*
D12*
X169160000Y-85370000D03*
X162810000Y-87910000D03*
%TD*%
D13*
%TO.C,D5*%
X118290000Y-61700000D03*
D14*
X125910000Y-61700000D03*
%TD*%
D13*
%TO.C,D2*%
X116340000Y-100700000D03*
D14*
X123960000Y-100700000D03*
%TD*%
D15*
%TO.C,U2*%
X98225000Y-62230000D03*
D16*
X99060000Y-62230000D03*
D15*
X98225000Y-64770000D03*
D16*
X99060000Y-64770000D03*
D15*
X98225000Y-67310000D03*
D16*
X99060000Y-67310000D03*
D15*
X98225000Y-69850000D03*
D16*
X99060000Y-69850000D03*
D15*
X98225000Y-72390000D03*
D16*
X99060000Y-72390000D03*
D15*
X98225000Y-74930000D03*
D16*
X99060000Y-74930000D03*
D15*
X98225000Y-77470000D03*
D16*
X99060000Y-77470000D03*
X114300000Y-77470000D03*
D17*
X115135000Y-77470000D03*
D16*
X114300000Y-74930000D03*
D17*
X115135000Y-74930000D03*
D16*
X114300000Y-72390000D03*
D17*
X115135000Y-72390000D03*
D16*
X114300000Y-69850000D03*
D17*
X115135000Y-69850000D03*
D16*
X114300000Y-67310000D03*
D17*
X115135000Y-67310000D03*
D16*
X114300000Y-64770000D03*
D17*
X115135000Y-64770000D03*
D16*
X114300000Y-62230000D03*
D17*
X115135000Y-62230000D03*
%TD*%
D10*
%TO.C,SW7*%
X161540000Y-71400000D03*
D11*
X166620000Y-71400000D03*
D10*
X171700000Y-71400000D03*
D12*
X169160000Y-66320000D03*
X162810000Y-68860000D03*
%TD*%
D13*
%TO.C,D3*%
X155890000Y-100300000D03*
D14*
X163510000Y-100300000D03*
%TD*%
D13*
%TO.C,D4*%
X158200000Y-61600000D03*
D14*
X165820000Y-61600000D03*
%TD*%
D13*
%TO.C,D7*%
X136540000Y-82000000D03*
D14*
X144160000Y-82000000D03*
%TD*%
D10*
%TO.C,SW5*%
X142490000Y-90450000D03*
D11*
X147570000Y-90450000D03*
D10*
X152650000Y-90450000D03*
D12*
X150110000Y-85370000D03*
X143760000Y-87910000D03*
%TD*%
D13*
%TO.C,D6*%
X138990000Y-61700000D03*
D14*
X146610000Y-61700000D03*
%TD*%
D10*
%TO.C,SW9*%
X161540000Y-109500000D03*
D11*
X166620000Y-109500000D03*
D10*
X171700000Y-109500000D03*
D12*
X169160000Y-104420000D03*
X162810000Y-106960000D03*
%TD*%
D10*
%TO.C,SW1*%
X123440000Y-71400000D03*
D11*
X128520000Y-71400000D03*
D10*
X133600000Y-71400000D03*
D12*
X131060000Y-66320000D03*
X124710000Y-68860000D03*
%TD*%
D13*
%TO.C,D1*%
X136090000Y-100700000D03*
D14*
X143710000Y-100700000D03*
%TD*%
D10*
%TO.C,SW3*%
X123440000Y-109500000D03*
D11*
X128520000Y-109500000D03*
D10*
X133600000Y-109500000D03*
D12*
X131060000Y-104420000D03*
X124710000Y-106960000D03*
%TD*%
D10*
%TO.C,SW6*%
X142490000Y-109500000D03*
D11*
X147570000Y-109500000D03*
D10*
X152650000Y-109500000D03*
D12*
X150110000Y-104420000D03*
X143760000Y-106960000D03*
%TD*%
D10*
%TO.C,SW4*%
X142490000Y-71400000D03*
D11*
X147570000Y-71400000D03*
D10*
X152650000Y-71400000D03*
D12*
X150110000Y-66320000D03*
X143760000Y-68860000D03*
%TD*%
D10*
%TO.C,SW2*%
X123440000Y-90450000D03*
D11*
X128520000Y-90450000D03*
D10*
X133600000Y-90450000D03*
D12*
X131060000Y-85370000D03*
X124710000Y-87910000D03*
%TD*%
D13*
%TO.C,D8*%
X117490000Y-82000000D03*
D14*
X125110000Y-82000000D03*
%TD*%
D13*
%TO.C,D9*%
X155590000Y-82000000D03*
D14*
X163210000Y-82000000D03*
%TD*%
M02*
